<?xml version="1.0" encoding="UTF-8"?>
<svg xmlns="http://www.w3.org/2000/svg" xmlns:xlink="http://www.w3.org/1999/xlink" width="28px" height="31px" viewBox="0 0 28 30" version="1.1">
<g id="surface1">
<path style=" stroke:none;fill-rule:nonzero;fill:rgb(0%,0%,0%);fill-opacity:1;" d="M 12.90625 4.117188 C 11.4375 4.285156 10.246094 4.621094 9.035156 5.199219 C 7.882812 5.75 6.886719 6.460938 5.949219 7.398438 C 4.304688 9.046875 3.296875 11.015625 2.902344 13.359375 C 2.785156 14.03125 2.785156 15.96875 2.902344 16.640625 C 3.230469 18.574219 4.019531 20.34375 5.207031 21.796875 C 6.730469 23.660156 8.957031 25.050781 11.289062 25.601562 C 12.34375 25.855469 12.679688 25.886719 14.023438 25.886719 C 15.082031 25.882812 15.320312 25.871094 15.792969 25.792969 C 18.160156 25.390625 20.136719 24.421875 21.804688 22.839844 C 23.59375 21.144531 24.683594 19.09375 25.097656 16.640625 C 25.214844 15.96875 25.214844 14.03125 25.097656 13.359375 C 24.785156 11.492188 24.101562 9.910156 22.976562 8.4375 C 22.488281 7.796875 21.394531 6.734375 20.738281 6.253906 C 19.25 5.183594 17.667969 4.519531 15.820312 4.214844 C 15.394531 4.140625 15.0625 4.121094 14.175781 4.113281 C 13.5625 4.105469 12.988281 4.109375 12.90625 4.117188 Z M 10.867188 5.476562 C 11.289062 5.628906 11.910156 5.941406 12.335938 6.207031 C 12.542969 6.339844 12.714844 6.449219 12.71875 6.453125 C 12.734375 6.464844 11.515625 10.023438 11.476562 10.089844 C 11.457031 10.121094 11.214844 10.238281 10.9375 10.351562 C 10.074219 10.699219 8.738281 11.375 7.992188 11.832031 C 7.832031 11.9375 7.679688 12.015625 7.65625 12.015625 C 7.628906 12.015625 7.070312 11.707031 6.410156 11.324219 C 5.402344 10.742188 5.207031 10.613281 5.207031 10.535156 C 5.207031 10.398438 5.746094 9.089844 6.003906 8.59375 C 6.191406 8.242188 6.285156 8.113281 6.640625 7.769531 C 7.695312 6.75 9.027344 5.917969 10.347656 5.453125 C 10.46875 5.410156 10.570312 5.375 10.570312 5.375 C 10.574219 5.371094 10.707031 5.417969 10.867188 5.476562 Z M 18.769531 5.933594 C 20.316406 6.707031 21.742188 7.941406 22.6875 9.339844 C 22.960938 9.738281 23.445312 10.585938 23.449219 10.660156 C 23.449219 10.679688 23.265625 10.585938 23.046875 10.453125 C 22.640625 10.210938 21.871094 9.84375 21.464844 9.695312 C 21.265625 9.621094 21.117188 9.46875 19.695312 7.90625 C 18.84375 6.96875 18.097656 6.152344 18.046875 6.09375 C 17.972656 6.007812 17.953125 5.949219 17.972656 5.785156 L 17.988281 5.589844 L 18.125 5.636719 C 18.203125 5.664062 18.492188 5.796875 18.769531 5.933594 Z M 18.945312 8.207031 C 19.84375 9.199219 20.589844 10.03125 20.597656 10.058594 C 20.625 10.125 20.410156 10.726562 19.964844 11.847656 C 19.730469 12.421875 19.542969 12.894531 19.539062 12.898438 C 19.535156 12.902344 18.445312 13.015625 17.109375 13.152344 C 15.277344 13.332031 14.683594 13.378906 14.65625 13.34375 C 14.597656 13.246094 12.839844 11.316406 12.480469 10.953125 L 12.117188 10.585938 L 12.789062 8.632812 C 13.199219 7.425781 13.484375 6.667969 13.527344 6.644531 C 13.5625 6.621094 13.996094 6.566406 14.484375 6.523438 C 15.710938 6.40625 15.679688 6.410156 16.539062 6.402344 L 17.304688 6.394531 Z M 6.019531 11.960938 L 7.261719 12.675781 L 7.261719 13.128906 C 7.261719 13.964844 7.386719 15.15625 7.574219 16.179688 L 7.660156 16.65625 L 6.734375 18.078125 C 6.226562 18.855469 5.78125 19.519531 5.75 19.554688 C 5.695312 19.609375 5.640625 19.585938 5.320312 19.371094 C 4.960938 19.136719 4.242188 18.554688 4.167969 18.441406 C 4.050781 18.253906 3.757812 17.144531 3.652344 16.46875 C 3.441406 15.15625 3.582031 13.105469 3.925781 12.5 C 4.074219 12.230469 4.730469 11.25 4.753906 11.25 C 4.769531 11.25 5.335938 11.570312 6.019531 11.960938 Z M 20.023438 14.285156 C 20.558594 15.082031 20.949219 15.71875 21.292969 16.363281 L 21.554688 16.855469 L 20.355469 19.027344 C 19.695312 20.21875 19.152344 21.203125 19.144531 21.207031 C 19.117188 21.238281 18.367188 21.355469 17.71875 21.429688 C 16.886719 21.53125 15.230469 21.625 15.179688 21.578125 C 15.164062 21.558594 14.617188 20.644531 13.964844 19.546875 L 12.785156 17.558594 L 13.394531 16.4375 C 13.734375 15.824219 14.132812 15.082031 14.289062 14.785156 C 14.441406 14.492188 14.585938 14.230469 14.609375 14.195312 C 14.640625 14.148438 15.246094 14.074219 17.050781 13.890625 C 18.367188 13.753906 19.476562 13.644531 19.515625 13.640625 C 19.566406 13.636719 19.738281 13.863281 20.023438 14.285156 Z M 24.367188 16.304688 C 24.074219 18.507812 23.015625 20.613281 21.410156 22.175781 C 21.023438 22.554688 20.207031 23.238281 20.175781 23.207031 C 20.171875 23.199219 20.136719 23.03125 20.101562 22.835938 C 20.066406 22.640625 19.988281 22.277344 19.921875 22.03125 L 19.808594 21.582031 L 21.046875 19.332031 L 22.289062 17.082031 L 22.925781 16.765625 C 23.269531 16.589844 23.742188 16.324219 23.976562 16.175781 C 24.203125 16.027344 24.394531 15.90625 24.402344 15.917969 C 24.414062 15.921875 24.394531 16.097656 24.367188 16.304688 Z M 8.996094 17.46875 C 9.886719 17.671875 10.902344 17.863281 11.628906 17.964844 C 12.113281 18.035156 12.175781 18.050781 12.246094 18.148438 C 12.289062 18.207031 12.820312 19.09375 13.425781 20.121094 L 14.53125 21.980469 L 13.894531 22.828125 C 13.546875 23.292969 13.222656 23.71875 13.171875 23.777344 L 13.089844 23.878906 L 10.667969 23.464844 C 9.335938 23.238281 8.210938 23.035156 8.171875 23.027344 C 8.085938 23.003906 7.5625 22.351562 7.144531 21.734375 C 6.765625 21.179688 6.257812 20.328125 6.257812 20.25 C 6.257812 20.15625 8.140625 17.300781 8.203125 17.300781 C 8.234375 17.300781 8.589844 17.378906 8.996094 17.46875 Z M 11.019531 24.269531 C 12.765625 24.570312 12.910156 24.601562 13.277344 24.761719 C 13.496094 24.859375 13.8125 24.988281 13.976562 25.046875 L 14.285156 25.164062 L 13.957031 25.175781 C 13.042969 25.214844 11.636719 24.980469 10.546875 24.613281 C 9.859375 24.378906 8.917969 23.949219 9.09375 23.949219 C 9.125 23.949219 9.992188 24.09375 11.019531 24.269531 Z M 11.019531 24.269531 "/>
</g>
</svg>
