<?xml version="1.0" encoding="UTF-8"?>
<!DOCTYPE svg PUBLIC "-//W3C//DTD SVG 1.1//EN" "http://www.w3.org/Graphics/SVG/1.1/DTD/svg11.dtd">
<svg xmlns="http://www.w3.org/2000/svg" version="1.1" width="502px" height="498px" style="shape-rendering:geometricPrecision; text-rendering:geometricPrecision; image-rendering:optimizeQuality; fill-rule:evenodd; clip-rule:evenodd" xmlns:xlink="http://www.w3.org/1999/xlink">
<g><path style="opacity:0.02" fill="#d6d6d6" d="M 281.5,0.5 C 281.5,0.166667 281.5,-0.166667 281.5,-0.5C 288.5,-0.5 295.5,-0.5 302.5,-0.5C 303.494,1.85433 302.494,2.85433 299.5,2.5C 299.918,1.77842 300.584,1.27842 301.5,1C 294.842,0.500416 288.175,0.333749 281.5,0.5 Z"/></g>
<g><path style="opacity:0.069" fill="#c9c9c9" d="M 271.5,-0.5 C 272.167,-0.5 272.833,-0.5 273.5,-0.5C 273.842,0.338246 274.508,0.67158 275.5,0.5C 272.5,1.16667 269.5,1.83333 266.5,2.5C 263.5,2.5 260.5,2.5 257.5,2.5C 262.167,1.5 266.833,0.5 271.5,-0.5 Z"/></g>
<g><path style="opacity:0.78" fill="#4c4b4b" d="M 275.5,0.5 C 277.5,0.5 279.5,0.5 281.5,0.5C 288.175,0.333749 294.842,0.500416 301.5,1C 300.584,1.27842 299.918,1.77842 299.5,2.5C 299.167,2.5 298.833,2.5 298.5,2.5C 297.833,2.5 297.167,2.5 296.5,2.5C 286.664,1.53531 276.664,1.53531 266.5,2.5C 269.5,1.83333 272.5,1.16667 275.5,0.5 Z"/></g>
<g><path style="opacity:0.063" fill="#c4c3c4" d="M 256.5,2.5 C 253.727,3.65719 250.727,4.32385 247.5,4.5C 250.077,3.02798 252.911,2.02798 256,1.5C 256.399,1.72845 256.565,2.06178 256.5,2.5 Z"/></g>
<g><path style="opacity:1" fill="#22211f" d="M 296.5,2.5 C 292.187,3.98994 288.187,5.98994 284.5,8.5C 284.158,9.33825 283.492,9.67158 282.5,9.5C 279.669,10.0787 277.336,11.412 275.5,13.5C 271.951,14.7232 268.951,16.7232 266.5,19.5C 264.973,19.427 263.973,20.0937 263.5,21.5C 263.5,22.1667 263.167,22.5 262.5,22.5C 259.4,23.0089 258.566,24.3422 260,26.5C 265.397,28.3566 270.897,29.6899 276.5,30.5C 280.63,33.3239 285.297,34.9906 290.5,35.5C 298.256,39.5424 306.256,43.3757 314.5,47C 309.177,47.4994 303.844,47.666 298.5,47.5C 287.946,47.1131 277.613,47.7798 267.5,49.5C 256.476,50.288 245.476,51.4546 234.5,53C 232.574,53.4224 231.574,54.5891 231.5,56.5C 225.008,64.4822 220.341,73.4822 217.5,83.5C 215.787,84.6354 215.12,86.302 215.5,88.5C 211.415,96.2511 208.582,104.584 207,113.5C 206.329,114.252 205.496,114.586 204.5,114.5C 202.183,110.518 199.183,107.185 195.5,104.5C 193.206,100.873 190.54,97.5393 187.5,94.5C 187.262,92.5956 186.262,91.2623 184.5,90.5C 183.66,88.1475 182.326,86.1475 180.5,84.5C 178.554,80.5606 176.221,76.894 173.5,73.5C 173.151,68.2011 170.484,66.0345 165.5,67C 145.784,72.2939 126.784,79.4606 108.5,88.5C 107.893,88.3764 107.56,88.0431 107.5,87.5C 108.833,86.1667 110.167,84.8333 111.5,83.5C 118.806,75.8598 126.139,68.1931 133.5,60.5C 136.432,59.2003 138.766,57.2003 140.5,54.5C 145.383,51.8906 149.716,48.5573 153.5,44.5C 154.708,43.7659 156.041,43.4326 157.5,43.5C 156.191,38.8792 153.858,34.8792 150.5,31.5C 150.446,29.368 149.446,28.0347 147.5,27.5C 147.262,25.5956 146.262,24.2623 144.5,23.5C 143.859,22.5178 143.193,21.5178 142.5,20.5C 144.608,19.0562 146.941,18.3896 149.5,18.5C 154.75,18.6975 159.75,18.0308 164.5,16.5C 176.833,16.5 189.167,16.5 201.5,16.5C 213.329,14.5538 224.663,11.2205 235.5,6.5C 239.36,5.19581 243.36,4.52915 247.5,4.5C 250.727,4.32385 253.727,3.65719 256.5,2.5C 256.833,2.5 257.167,2.5 257.5,2.5C 260.5,2.5 263.5,2.5 266.5,2.5C 276.664,1.53531 286.664,1.53531 296.5,2.5 Z"/></g>
<g><path style="opacity:0.133" fill="#cac9c9" d="M 296.5,2.5 C 297.167,2.5 297.833,2.5 298.5,2.5C 294.093,5.03526 289.426,7.03526 284.5,8.5C 288.187,5.98994 292.187,3.98994 296.5,2.5 Z"/></g>
<g><path style="opacity:0.165" fill="#b9b9b8" d="M 282.5,9.5 C 280.664,11.588 278.331,12.9213 275.5,13.5C 277.336,11.412 279.669,10.0787 282.5,9.5 Z"/></g>
<g><path style="opacity:0.655" fill="#999898" d="M 235.5,6.5 C 224.663,11.2205 213.329,14.5538 201.5,16.5C 201.5,16.1667 201.5,15.8333 201.5,15.5C 212.938,12.9099 224.271,9.90986 235.5,6.5 Z"/></g>
<g><path style="opacity:0.188" fill="#b7b6b6" d="M 275.5,13.5 C 273.025,16.2411 270.025,18.2411 266.5,19.5C 268.951,16.7232 271.951,14.7232 275.5,13.5 Z"/></g>
<g><path style="opacity:0.704" fill="#838282" d="M 201.5,15.5 C 201.5,15.8333 201.5,16.1667 201.5,16.5C 189.167,16.5 176.833,16.5 164.5,16.5C 161.833,16.5 159.167,16.5 156.5,16.5C 171.32,14.4066 186.32,14.0732 201.5,15.5 Z"/></g>
<g><path style="opacity:0.886" fill="#545452" d="M 156.5,16.5 C 159.167,16.5 161.833,16.5 164.5,16.5C 159.75,18.0308 154.75,18.6975 149.5,18.5C 151.833,17.8333 154.167,17.1667 156.5,16.5 Z"/></g>
<g><path style="opacity:0.408" fill="#c3c3c3" d="M 156.5,16.5 C 154.167,17.1667 151.833,17.8333 149.5,18.5C 146.941,18.3896 144.608,19.0562 142.5,20.5C 143.193,21.5178 143.859,22.5178 144.5,23.5C 141.513,23.0522 140.513,21.5522 141.5,19C 146.325,17.1053 151.325,16.272 156.5,16.5 Z"/></g>
<g><path style="opacity:0.063" fill="#bcbbbb" d="M 266.5,19.5 C 266.027,20.9063 265.027,21.573 263.5,21.5C 263.973,20.0937 264.973,19.427 266.5,19.5 Z"/></g>
<g><path style="opacity:0.055" fill="#bdbdbc" d="M 144.5,23.5 C 146.262,24.2623 147.262,25.5956 147.5,27.5C 145.738,26.7377 144.738,25.4044 144.5,23.5 Z"/></g>
<g><path style="opacity:0.282" fill="#a09f9f" d="M 262.5,22.5 C 262.047,23.4584 261.381,24.2917 260.5,25C 266.051,26.5445 271.384,28.3778 276.5,30.5C 270.897,29.6899 265.397,28.3566 260,26.5C 258.566,24.3422 259.4,23.0089 262.5,22.5 Z"/></g>
<g><path style="opacity:0.522" fill="#9c9b9b" d="M 147.5,27.5 C 149.446,28.0347 150.446,29.368 150.5,31.5C 149.026,30.5637 148.026,29.2303 147.5,27.5 Z"/></g>
<g><path style="opacity:0.004" fill="#b5b5b5" d="M 276.5,30.5 C 280.827,31.5511 285.16,32.7177 289.5,34C 290.056,34.3826 290.389,34.8826 290.5,35.5C 285.297,34.9906 280.63,33.3239 276.5,30.5 Z"/></g>
<g><path style="opacity:0.31" fill="#afaeae" d="M 150.5,31.5 C 153.858,34.8792 156.191,38.8792 157.5,43.5C 156.041,43.4326 154.708,43.7659 153.5,44.5C 153.721,43.2652 154.388,42.2652 155.5,41.5C 153.295,38.4234 151.628,35.0901 150.5,31.5 Z"/></g>
<g><path style="opacity:0.255" fill="#b9b9b9" d="M 290.5,35.5 C 299.528,38.5142 308.195,42.3475 316.5,47C 322.064,47.2487 327.398,48.0821 332.5,49.5C 331.167,49.5 329.833,49.5 328.5,49.5C 325.015,48.4095 321.681,48.4095 318.5,49.5C 306.347,48.7048 294.014,48.7048 281.5,49.5C 287.167,48.8333 292.833,48.1667 298.5,47.5C 303.844,47.666 309.177,47.4994 314.5,47C 306.256,43.3757 298.256,39.5424 290.5,35.5 Z"/></g>
<g><path style="opacity:0.369" fill="#b0b0b0" d="M 153.5,44.5 C 149.716,48.5573 145.383,51.8906 140.5,54.5C 144.258,50.4078 148.591,47.0745 153.5,44.5 Z"/></g>
<g><path style="opacity:0.188" fill="#cacaca" d="M 402.5,46.5 C 402.167,46.5 401.833,46.5 401.5,46.5C 400.479,46.8993 400.146,48.2326 400.5,50.5C 399.203,48.3066 399.203,45.9732 400.5,43.5C 401.919,44.0047 402.585,45.0047 402.5,46.5 Z"/></g>
<g><path style="opacity:0.016" fill="#c5c4c4" d="M 402.5,46.5 C 404.833,46.8333 406.167,48.1667 406.5,50.5C 404.833,49.5 403.5,48.1667 402.5,46.5 Z"/></g>
<g><path style="opacity:0.451" fill="#7d7c7c" d="M 298.5,47.5 C 292.833,48.1667 287.167,48.8333 281.5,49.5C 278.302,50.7 274.969,50.7 271.5,49.5C 270.167,49.5 268.833,49.5 267.5,49.5C 277.613,47.7798 287.946,47.1131 298.5,47.5 Z"/></g>
<g><path style="opacity:0.322" fill="#b2b0b1" d="M 318.5,49.5 C 320.404,49.7376 321.738,50.7376 322.5,52.5C 320.596,52.2624 319.262,51.2624 318.5,49.5 Z"/></g>
<g><path style="opacity:1" fill="#22211f" d="M 401.5,46.5 C 401.833,46.5 402.167,46.5 402.5,46.5C 403.5,48.1667 404.833,49.5 406.5,50.5C 407.5,52.1667 408.833,53.5 410.5,54.5C 410.738,56.4044 411.738,57.7377 413.5,58.5C 414.419,61.0892 416.086,63.0892 418.5,64.5C 419.338,64.8417 419.672,65.5084 419.5,66.5C 419.738,68.4044 420.738,69.7377 422.5,70.5C 422.427,72.0269 423.094,73.0269 424.5,73.5C 425.674,74.5137 426.34,75.847 426.5,77.5C 426.738,79.4044 427.738,80.7377 429.5,81.5C 431.674,84.5154 433.341,87.8487 434.5,91.5C 434.565,95.1069 436.231,97.4403 439.5,98.5C 441.854,101.851 444.854,104.518 448.5,106.5C 452.105,111.774 456.438,116.441 461.5,120.5C 462.08,122.749 463.413,124.415 465.5,125.5C 466.419,128.089 468.086,130.089 470.5,131.5C 471.338,131.842 471.672,132.508 471.5,133.5C 471.427,135.027 472.094,136.027 473.5,136.5C 473.738,138.404 474.738,139.738 476.5,140.5C 476.725,143.546 478.058,145.879 480.5,147.5C 480.157,149.483 480.824,150.817 482.5,151.5C 482.755,153.967 483.755,155.967 485.5,157.5C 485.649,158.552 485.483,159.552 485,160.5C 484.329,159.748 483.496,159.414 482.5,159.5C 482.027,158.094 481.027,157.427 479.5,157.5C 478.365,155.787 476.698,155.12 474.5,155.5C 470.37,152.676 465.703,151.009 460.5,150.5C 460.167,150.5 459.833,150.5 459.5,150.5C 458.22,149.069 456.553,148.402 454.5,148.5C 455.594,154.98 456.927,161.313 458.5,167.5C 459.461,177.813 460.127,188.146 460.5,198.5C 460.823,205.022 460.49,211.355 459.5,217.5C 455.228,208.272 450.228,199.606 444.5,191.5C 443.921,188.669 442.588,186.336 440.5,184.5C 440.25,182.326 439.25,180.659 437.5,179.5C 437.573,177.973 436.906,176.973 435.5,176.5C 435.155,173.802 433.822,171.802 431.5,170.5C 430.617,167.296 428.95,164.629 426.5,162.5C 424.938,158.608 422.605,155.275 419.5,152.5C 418.864,150.205 417.531,148.539 415.5,147.5C 398.648,146.021 381.982,147.355 365.5,151.5C 359.939,151.956 354.606,152.956 349.5,154.5C 347.259,154.954 345.259,154.954 343.5,154.5C 346.243,152.761 348.243,150.427 349.5,147.5C 355.508,141.655 361.008,135.322 366,128.5C 368.751,124.598 371.251,120.598 373.5,116.5C 374.906,116.027 375.573,115.027 375.5,113.5C 376.906,113.027 377.573,112.027 377.5,110.5C 378.906,110.027 379.573,109.027 379.5,107.5C 381.273,106.686 381.773,105.352 381,103.5C 378.049,100.428 375.216,97.2609 372.5,94C 371.906,93.5357 371.239,93.369 370.5,93.5C 368.833,89.8333 366.167,87.1667 362.5,85.5C 361.5,84.1667 360.5,82.8333 359.5,81.5C 359.027,80.0937 358.027,79.427 356.5,79.5C 355.738,77.7376 354.404,76.7376 352.5,76.5C 351.811,73.8106 350.144,72.1439 347.5,71.5C 346.738,69.7376 345.404,68.7376 343.5,68.5C 343.167,67.5 342.5,66.8333 341.5,66.5C 340.738,64.7376 339.404,63.7376 337.5,63.5C 336.738,61.7376 335.404,60.7376 333.5,60.5C 333.167,59.5 332.5,58.8333 331.5,58.5C 331.027,57.0937 330.027,56.427 328.5,56.5C 328.027,55.0937 327.027,54.427 325.5,54.5C 325.027,53.0937 324.027,52.427 322.5,52.5C 321.738,50.7376 320.404,49.7376 318.5,49.5C 321.681,48.4095 325.015,48.4095 328.5,49.5C 343.96,52.533 359.294,56.533 374.5,61.5C 379.277,63.8742 384.277,65.8742 389.5,67.5C 390.514,68.6737 391.847,69.3404 393.5,69.5C 394.492,69.3284 395.158,69.6618 395.5,70.5C 396.91,71.8284 398.076,71.4951 399,69.5C 400.879,61.9489 401.713,54.2823 401.5,46.5 Z"/></g>
<g><path style="opacity:0.039" fill="#c7c7c6" d="M 406.5,50.5 C 408.833,50.8333 410.167,52.1667 410.5,54.5C 408.833,53.5 407.5,52.1667 406.5,50.5 Z"/></g>
<g><path style="opacity:0.063" fill="#cbcbcb" d="M 267.5,49.5 C 268.833,49.5 270.167,49.5 271.5,49.5C 259.707,51.4605 247.707,52.9605 235.5,54C 234.016,54.6622 232.683,55.4955 231.5,56.5C 231.574,54.5891 232.574,53.4224 234.5,53C 245.476,51.4546 256.476,50.288 267.5,49.5 Z"/></g>
<g><path style="opacity:0.192" fill="#bebdbc" d="M 322.5,52.5 C 324.027,52.427 325.027,53.0937 325.5,54.5C 323.973,54.573 322.973,53.9063 322.5,52.5 Z"/></g>
<g><path style="opacity:0.145" fill="#b1b1b1" d="M 328.5,49.5 C 329.833,49.5 331.167,49.5 332.5,49.5C 347.207,51.367 361.207,55.367 374.5,61.5C 359.294,56.533 343.96,52.533 328.5,49.5 Z"/></g>
<g><path style="opacity:0.404" fill="#a2a2a2" d="M 91.5,55.5 C 91.631,54.7611 91.4643,54.0944 91,53.5C 87.9556,56.0509 84.7889,58.3842 81.5,60.5C 85.155,55.7228 89.655,51.7228 95,48.5C 95.4428,51.6144 94.2762,53.9477 91.5,55.5 Z"/></g>
<g><path style="opacity:0.325" fill="#bfbebf" d="M 140.5,54.5 C 138.766,57.2003 136.432,59.2003 133.5,60.5C 133.414,59.5041 133.748,58.6708 134.5,58C 136.405,56.5787 138.405,55.412 140.5,54.5 Z"/></g>
<g><path style="opacity:0.29" fill="#bbbbbb" d="M 325.5,54.5 C 327.027,54.427 328.027,55.0937 328.5,56.5C 326.973,56.573 325.973,55.9063 325.5,54.5 Z"/></g>
<g><path style="opacity:0.51" fill="#b0b0af" d="M 410.5,54.5 C 412.262,55.2623 413.262,56.5956 413.5,58.5C 411.738,57.7377 410.738,56.4044 410.5,54.5 Z"/></g>
<g><path style="opacity:0.153" fill="#bebebe" d="M 91.5,55.5 C 91.573,57.0269 90.9063,58.0269 89.5,58.5C 89.427,56.9731 90.0937,55.9731 91.5,55.5 Z"/></g>
<g><path style="opacity:0.396" fill="#a7a6a6" d="M 328.5,56.5 C 330.027,56.427 331.027,57.0937 331.5,58.5C 329.973,58.573 328.973,57.9063 328.5,56.5 Z"/></g>
<g><path style="opacity:0.016" fill="#cececd" d="M 331.5,58.5 C 332.5,58.8333 333.167,59.5 333.5,60.5C 332.167,60.5 331.5,59.8333 331.5,58.5 Z"/></g>
<g><path style="opacity:0.231" fill="#ababaa" d="M 89.5,58.5 C 88.6167,61.7043 86.9501,64.3709 84.5,66.5C 85.3833,63.2957 87.0499,60.6291 89.5,58.5 Z"/></g>
<g><path style="opacity:0.322" fill="#c2c2c2" d="M 333.5,60.5 C 335.404,60.7376 336.738,61.7376 337.5,63.5C 335.596,63.2624 334.262,62.2624 333.5,60.5 Z"/></g>
<g><path style="opacity:0.294" fill="#a8a7a7" d="M 413.5,58.5 C 415.914,59.9108 417.581,61.9108 418.5,64.5C 416.086,63.0892 414.419,61.0892 413.5,58.5 Z"/></g>
<g><path style="opacity:0.51" fill="#b2b1b1" d="M 337.5,63.5 C 339.404,63.7376 340.738,64.7376 341.5,66.5C 339.596,66.2624 338.262,65.2624 337.5,63.5 Z"/></g>
<g><path style="opacity:0.169" fill="#bdbcbc" d="M 374.5,61.5 C 380.025,62.3383 385.025,64.3383 389.5,67.5C 384.277,65.8742 379.277,63.8742 374.5,61.5 Z"/></g>
<g><path style="opacity:0.008" fill="#dad9d8" d="M 341.5,66.5 C 342.5,66.8333 343.167,67.5 343.5,68.5C 342.167,68.5 341.5,67.8333 341.5,66.5 Z"/></g>
<g><path style="opacity:0.145" fill="#bcbcbb" d="M 389.5,67.5 C 391.38,67.2291 392.713,67.8958 393.5,69.5C 391.847,69.3404 390.514,68.6737 389.5,67.5 Z"/></g>
<g><path style="opacity:0.576" fill="#9e9d9c" d="M 419.5,66.5 C 421.262,67.2623 422.262,68.5956 422.5,70.5C 420.738,69.7377 419.738,68.4044 419.5,66.5 Z"/></g>
<g><path style="opacity:0.263" fill="#b6b5b5" d="M 231.5,56.5 C 226.559,65.382 221.893,74.382 217.5,83.5C 220.341,73.4822 225.008,64.4822 231.5,56.5 Z"/></g>
<g><path style="opacity:0.471" fill="#bbbbbb" d="M 343.5,68.5 C 345.404,68.7376 346.738,69.7376 347.5,71.5C 345.596,71.2624 344.262,70.2624 343.5,68.5 Z"/></g>
<g><path style="opacity:0.439" fill="#a8a7a7" d="M 80.5,61.5 C 72.8057,69.5265 65.139,77.5265 57.5,85.5C 63.7917,76.2077 71.4584,68.2077 80.5,61.5 Z"/></g>
<g><path style="opacity:1" fill="#232220" d="M 91.5,55.5 C 90.0937,55.9731 89.427,56.9731 89.5,58.5C 87.0499,60.6291 85.3833,63.2957 84.5,66.5C 79.1261,74.581 74.7928,83.2477 71.5,92.5C 70.1153,93.3023 70.282,93.9689 72,94.5C 72.7648,94.4301 73.2648,94.0967 73.5,93.5C 79.3856,93.0203 85.0522,92.0203 90.5,90.5C 90.8333,90.5 91.1667,90.5 91.5,90.5C 95.5138,90.3345 99.5138,90.5012 103.5,91C 102.29,92.0391 101.29,93.2058 100.5,94.5C 98.5956,94.7376 97.2623,95.7376 96.5,97.5C 96.5,98.1667 96.1667,98.5 95.5,98.5C 91.9485,100.111 88.9485,102.444 86.5,105.5C 86.5,106.167 86.1667,106.5 85.5,106.5C 82.9108,107.419 80.9108,109.086 79.5,111.5C 72.6023,115.726 66.6023,121.059 61.5,127.5C 61.5,128.167 61.1667,128.5 60.5,128.5C 59.4138,128.62 58.7472,129.287 58.5,130.5C 55.2806,143.823 52.9473,157.157 51.5,170.5C 50.8333,176.167 50.1667,181.833 49.5,187.5C 49.1667,186.5 48.5,185.833 47.5,185.5C 47.573,183.973 46.9063,182.973 45.5,182.5C 45.573,180.973 44.9063,179.973 43.5,179.5C 43.2503,177.326 42.2503,175.659 40.5,174.5C 38.4516,169.401 36.1183,164.401 33.5,159.5C 31.2192,158.738 29.8859,159.738 29.5,162.5C 29.5,163.167 29.1667,163.5 28.5,163.5C 26.7376,164.262 25.7376,165.596 25.5,167.5C 23.7376,168.262 22.7376,169.596 22.5,171.5C 19.3954,174.275 17.0621,177.608 15.5,181.5C 15.6716,182.492 15.3382,183.158 14.5,183.5C 11.6742,186.484 9.3409,189.817 7.5,193.5C 6.52333,190.713 6.19,187.713 6.5,184.5C 7.67373,183.486 8.3404,182.153 8.5,180.5C 9.92381,178.485 10.5905,176.152 10.5,173.5C 10.5,173.167 10.5,172.833 10.5,172.5C 11.9238,170.485 12.5905,168.152 12.5,165.5C 13.9238,163.485 14.5905,161.152 14.5,158.5C 17.5505,154.387 19.5505,149.72 20.5,144.5C 20.3284,143.508 20.6618,142.842 21.5,142.5C 25.3349,136.975 28.3349,130.975 30.5,124.5C 32.2503,123.341 33.2503,121.674 33.5,119.5C 33.3284,118.508 33.6618,117.842 34.5,117.5C 35.9063,117.027 36.573,116.027 36.5,114.5C 38.3264,112.853 39.6597,110.853 40.5,108.5C 42.316,106.882 43.6493,104.882 44.5,102.5C 48.2624,99.0711 51.2624,95.0711 53.5,90.5C 55.5869,89.4154 56.9202,87.7488 57.5,85.5C 65.139,77.5265 72.8057,69.5265 80.5,61.5C 80.5,60.8333 80.8333,60.5 81.5,60.5C 84.7889,58.3842 87.9556,56.0509 91,53.5C 91.4643,54.0944 91.631,54.7611 91.5,55.5 Z"/></g>
<g><path style="opacity:0.545" fill="#908f8f" d="M 401.5,46.5 C 401.713,54.2823 400.879,61.9489 399,69.5C 398.076,71.4951 396.91,71.8284 395.5,70.5C 397.045,69.7703 397.878,68.437 398,66.5C 399.376,61.2449 400.209,55.9116 400.5,50.5C 400.146,48.2326 400.479,46.8993 401.5,46.5 Z"/></g>
<g><path style="opacity:0.663" fill="#a4a3a3" d="M 347.5,71.5 C 350.144,72.1439 351.811,73.8106 352.5,76.5C 350.548,75.2153 348.882,73.5486 347.5,71.5 Z"/></g>
<g><path style="opacity:0.569" fill="#989796" d="M 133.5,60.5 C 126.139,68.1931 118.806,75.8598 111.5,83.5C 111.5,83.1667 111.5,82.8333 111.5,82.5C 117.854,74.1456 125.188,66.8122 133.5,60.5 Z"/></g>
<g><path style="opacity:0.243" fill="#b1b1b0" d="M 422.5,70.5 C 423.906,70.9731 424.573,71.9731 424.5,73.5C 423.094,73.0269 422.427,72.0269 422.5,70.5 Z"/></g>
<g><path style="opacity:0.227" fill="#b2b1b1" d="M 173.5,73.5 C 176.221,76.894 178.554,80.5606 180.5,84.5C 176.99,81.6423 174.657,77.9757 173.5,73.5 Z"/></g>
<g><path style="opacity:0.188" fill="#bfbebe" d="M 84.5,66.5 C 80.7112,75.411 76.3778,84.0777 71.5,92.5C 74.7928,83.2477 79.1261,74.581 84.5,66.5 Z"/></g>
<g><path style="opacity:0.376" fill="#c7c7c7" d="M 352.5,76.5 C 354.404,76.7376 355.738,77.7376 356.5,79.5C 354.596,79.2624 353.262,78.2624 352.5,76.5 Z"/></g>
<g><path style="opacity:0.263" fill="#b1b0b0" d="M 173.5,73.5 C 171.878,71.3753 170.045,69.3753 168,67.5C 144.377,73.8701 121.877,82.8701 100.5,94.5C 101.29,93.2058 102.29,92.0391 103.5,91C 99.5138,90.5012 95.5138,90.3345 91.5,90.5C 94.5091,89.7171 97.6758,89.0504 101,88.5C 103.47,89.9507 105.637,89.6173 107.5,87.5C 107.56,88.0431 107.893,88.3764 108.5,88.5C 126.784,79.4606 145.784,72.2939 165.5,67C 170.484,66.0345 173.151,68.2011 173.5,73.5 Z"/></g>
<g><path style="opacity:0.686" fill="#848384" d="M 356.5,79.5 C 358.027,79.427 359.027,80.0937 359.5,81.5C 359.167,81.5 358.833,81.5 358.5,81.5C 357.5,81.1667 356.833,80.5 356.5,79.5 Z"/></g>
<g><path style="opacity:0.392" fill="#9c9a9b" d="M 426.5,77.5 C 428.262,78.2623 429.262,79.5956 429.5,81.5C 427.738,80.7377 426.738,79.4044 426.5,77.5 Z"/></g>
<g><path style="opacity:0.027" fill="#d8d8d8" d="M 358.5,81.5 C 358.833,81.5 359.167,81.5 359.5,81.5C 360.5,82.8333 361.5,84.1667 362.5,85.5C 360.167,85.1667 358.833,83.8333 358.5,81.5 Z"/></g>
<g><path style="opacity:0.078" fill="#d1d0d1" d="M 111.5,82.5 C 111.5,82.8333 111.5,83.1667 111.5,83.5C 110.167,84.8333 108.833,86.1667 107.5,87.5C 107.67,84.796 109.003,83.1293 111.5,82.5 Z"/></g>
<g><path style="opacity:0.408" fill="#aaaaa9" d="M 217.5,83.5 C 217.598,85.5529 216.931,87.2196 215.5,88.5C 215.12,86.302 215.787,84.6354 217.5,83.5 Z"/></g>
<g><path style="opacity:0.533" fill="#b3b3b3" d="M 362.5,85.5 C 366.167,87.1667 368.833,89.8333 370.5,93.5C 367.575,91.2421 364.909,88.5754 362.5,85.5 Z"/></g>
<g><path style="opacity:0.561" fill="#a9a9a7" d="M 57.5,85.5 C 56.9202,87.7488 55.5869,89.4154 53.5,90.5C 54.0798,88.2512 55.4131,86.5846 57.5,85.5 Z"/></g>
<g><path style="opacity:0.184" fill="#b6b6b6" d="M 180.5,84.5 C 182.326,86.1475 183.66,88.1475 184.5,90.5C 182.178,89.1979 180.845,87.1979 180.5,84.5 Z"/></g>
<g><path style="opacity:0.588" fill="#aaa9a9" d="M 53.5,90.5 C 51.2624,95.0711 48.2624,99.0711 44.5,102.5C 46.7376,97.9289 49.7376,93.9289 53.5,90.5 Z"/></g>
<g><path style="opacity:0.043" fill="#bebebe" d="M 184.5,90.5 C 186.262,91.2623 187.262,92.5956 187.5,94.5C 185.738,93.7377 184.738,92.4044 184.5,90.5 Z"/></g>
<g><path style="opacity:0.561" fill="#9c9b9c" d="M 90.5,90.5 C 85.0522,92.0203 79.3856,93.0203 73.5,93.5C 78.8301,91.3325 84.4968,90.3325 90.5,90.5 Z"/></g>
<g><path style="opacity:0.463" fill="#898888" d="M 71.5,92.5 C 71.8417,93.3382 72.5084,93.6716 73.5,93.5C 73.2648,94.0967 72.7648,94.4301 72,94.5C 70.282,93.9689 70.1153,93.3023 71.5,92.5 Z"/></g>
<g><path style="opacity:0.094" fill="#c5c4c4" d="M 100.5,94.5 C 99.7377,96.2624 98.4044,97.2624 96.5,97.5C 97.2623,95.7376 98.5956,94.7376 100.5,94.5 Z"/></g>
<g><path style="opacity:0.051" fill="#c2c1c1" d="M 187.5,94.5 C 190.54,97.5393 193.206,100.873 195.5,104.5C 191.7,102.037 189.033,98.704 187.5,94.5 Z"/></g>
<g><path style="opacity:0.51" fill="#a09f9f" d="M 434.5,91.5 C 435.982,93.8907 437.649,96.2241 439.5,98.5C 436.231,97.4403 434.565,95.1069 434.5,91.5 Z"/></g>
<g><path style="opacity:0.082" fill="#cccbcc" d="M 95.5,98.5 C 93.0515,101.556 90.0515,103.889 86.5,105.5C 88.9485,102.444 91.9485,100.111 95.5,98.5 Z"/></g>
<g><path style="opacity:0.051" fill="#c3c2c2" d="M 370.5,93.5 C 371.239,93.369 371.906,93.5357 372.5,94C 375.216,97.2609 378.049,100.428 381,103.5C 381.773,105.352 381.273,106.686 379.5,107.5C 379.414,106.504 379.748,105.671 380.5,105C 377.041,101.229 373.708,97.3954 370.5,93.5 Z"/></g>
<g><path style="opacity:0.357" fill="#a8a7a6" d="M 439.5,98.5 C 443.12,100.453 446.12,103.119 448.5,106.5C 444.854,104.518 441.854,101.851 439.5,98.5 Z"/></g>
<g><path style="opacity:0.145" fill="#bdbdbd" d="M 44.5,102.5 C 43.6493,104.882 42.316,106.882 40.5,108.5C 40.8702,105.733 42.2036,103.733 44.5,102.5 Z"/></g>
<g><path style="opacity:0.373" fill="#a5a5a4" d="M 195.5,104.5 C 199.183,107.185 202.183,110.518 204.5,114.5C 200.788,111.789 197.788,108.456 195.5,104.5 Z"/></g>
<g><path style="opacity:0.655" fill="#9e9e9d" d="M 448.5,106.5 C 453.562,110.559 457.895,115.226 461.5,120.5C 456.438,116.441 452.105,111.774 448.5,106.5 Z"/></g>
<g><path style="opacity:0.059" fill="#cfcece" d="M 85.5,106.5 C 84.0892,108.914 82.0892,110.581 79.5,111.5C 80.9108,109.086 82.9108,107.419 85.5,106.5 Z"/></g>
<g><path style="opacity:0.231" fill="#c6c5c5" d="M 379.5,107.5 C 379.573,109.027 378.906,110.027 377.5,110.5C 377.427,108.973 378.094,107.973 379.5,107.5 Z"/></g>
<g><path style="opacity:0.388" fill="#a8a6a7" d="M 40.5,108.5 C 39.6597,110.853 38.3264,112.853 36.5,114.5C 36.8449,111.802 38.1782,109.802 40.5,108.5 Z"/></g>
<g><path style="opacity:0.255" fill="#bcbcbc" d="M 377.5,110.5 C 377.573,112.027 376.906,113.027 375.5,113.5C 375.427,111.973 376.094,110.973 377.5,110.5 Z"/></g>
<g><path style="opacity:0.31" fill="#aaa9aa" d="M 215.5,88.5 C 212.667,97.1703 210.334,106.004 208.5,115C 208.943,116.825 209.277,118.658 209.5,120.5C 208.685,119.571 207.852,118.571 207,117.5C 205.517,120.803 204.35,124.136 203.5,127.5C 203.062,127.565 202.728,127.399 202.5,127C 203.068,124.316 204.068,121.816 205.5,119.5C 204.691,117.929 204.357,116.262 204.5,114.5C 205.496,114.586 206.329,114.252 207,113.5C 208.582,104.584 211.415,96.2511 215.5,88.5 Z"/></g>
<g><path style="opacity:0.259" fill="#c5c5c4" d="M 375.5,113.5 C 375.573,115.027 374.906,116.027 373.5,116.5C 373.427,114.973 374.094,113.973 375.5,113.5 Z"/></g>
<g><path style="opacity:0.302" fill="#a9a9a9" d="M 36.5,114.5 C 36.573,116.027 35.9063,117.027 34.5,117.5C 34.427,115.973 35.0937,114.973 36.5,114.5 Z"/></g>
<g><path style="opacity:0.294" fill="#b8b8b7" d="M 373.5,116.5 C 371.251,120.598 368.751,124.598 366,128.5C 361.008,135.322 355.508,141.655 349.5,147.5C 356.742,136.59 364.742,126.257 373.5,116.5 Z"/></g>
<g><path style="opacity:0.259" fill="#a7a7a7" d="M 33.5,119.5 C 33.2503,121.674 32.2503,123.341 30.5,124.5C 30.7497,122.326 31.7497,120.659 33.5,119.5 Z"/></g>
<g><path style="opacity:0.047" fill="#cccccb" d="M 79.5,111.5 C 73.8853,117.301 67.8853,122.634 61.5,127.5C 66.6023,121.059 72.6023,115.726 79.5,111.5 Z"/></g>
<g><path style="opacity:0.263" fill="#b7b7b6" d="M 209.5,120.5 C 210.906,120.973 211.573,121.973 211.5,123.5C 210.094,123.027 209.427,122.027 209.5,120.5 Z"/></g>
<g><path style="opacity:0.42" fill="#aaa8a9" d="M 461.5,120.5 C 463.587,121.585 464.92,123.251 465.5,125.5C 463.413,124.415 462.08,122.749 461.5,120.5 Z"/></g>
<g><path style="opacity:1" fill="#22211f" d="M 209.5,120.5 C 209.427,122.027 210.094,123.027 211.5,123.5C 212.338,123.842 212.672,124.508 212.5,125.5C 212.75,127.674 213.75,129.341 215.5,130.5C 215.427,132.027 216.094,133.027 217.5,133.5C 218.338,133.842 218.672,134.508 218.5,135.5C 218.738,137.404 219.738,138.738 221.5,139.5C 222.674,140.514 223.34,141.847 223.5,143.5C 223.427,145.027 224.094,146.027 225.5,146.5C 225.427,148.027 226.094,149.027 227.5,149.5C 228.338,149.842 228.672,150.508 228.5,151.5C 228.427,153.027 229.094,154.027 230.5,154.5C 230.738,156.404 231.738,157.738 233.5,158.5C 233.427,160.027 234.094,161.027 235.5,161.5C 236.674,162.514 237.34,163.847 237.5,165.5C 237.738,167.404 238.738,168.738 240.5,169.5C 240.427,171.027 241.094,172.027 242.5,172.5C 242.427,174.027 243.094,175.027 244.5,175.5C 244.427,177.027 245.094,178.027 246.5,178.5C 246.414,179.496 246.748,180.329 247.5,181C 249.066,181.765 250.399,181.598 251.5,180.5C 251.833,180.5 252.167,180.5 252.5,180.5C 254.786,180.405 256.786,179.738 258.5,178.5C 259.209,177.596 260.209,177.263 261.5,177.5C 275.483,174.28 289.15,170.28 302.5,165.5C 303.568,164.566 304.901,164.232 306.5,164.5C 309.428,164.435 312.095,163.768 314.5,162.5C 318.761,162.102 322.761,161.102 326.5,159.5C 330.453,159.536 334.286,158.869 338,157.5C 338.833,157.667 339.667,157.833 340.5,158C 339.177,158.816 338.511,159.983 338.5,161.5C 338.5,162.167 338.167,162.5 337.5,162.5C 335.738,163.262 334.738,164.596 334.5,166.5C 332.738,167.262 331.738,168.596 331.5,170.5C 331.5,171.167 331.167,171.5 330.5,171.5C 328.738,172.262 327.738,173.596 327.5,175.5C 325.457,176.579 324.124,178.246 323.5,180.5C 322.094,180.973 321.427,181.973 321.5,183.5C 318.529,185.443 316.529,188.109 315.5,191.5C 315.5,192.167 315.167,192.5 314.5,192.5C 313.094,192.973 312.427,193.973 312.5,195.5C 310.738,196.262 309.738,197.596 309.5,199.5C 307.738,200.262 306.738,201.596 306.5,203.5C 304.1,205.296 302.433,207.63 301.5,210.5C 298.067,213.601 295.4,217.268 293.5,221.5C 291.738,222.262 290.738,223.596 290.5,225.5C 288.683,227.492 287.016,229.659 285.5,232C 286.315,233.98 287.648,235.48 289.5,236.5C 289.833,237.5 290.5,238.167 291.5,238.5C 292.08,240.749 293.413,242.415 295.5,243.5C 296.419,246.089 298.086,248.089 300.5,249.5C 302.094,252.764 304.427,255.431 307.5,257.5C 308.757,260.427 310.757,262.761 313.5,264.5C 314.167,265.833 315.167,266.833 316.5,267.5C 317.08,269.749 318.413,271.415 320.5,272.5C 321.5,274.167 322.833,275.5 324.5,276.5C 326.766,280.436 329.766,283.769 333.5,286.5C 334.478,289.478 336.478,291.478 339.5,292.5C 339.833,293.5 340.5,294.167 341.5,294.5C 342.167,297.167 343.833,298.833 346.5,299.5C 346.53,300.497 346.03,301.164 345,301.5C 342.901,300.713 340.734,300.38 338.5,300.5C 336.708,300.634 335.042,300.301 333.5,299.5C 332.081,298.549 330.415,298.216 328.5,298.5C 325.941,298.802 323.607,298.468 321.5,297.5C 321.5,297.167 321.5,296.833 321.5,296.5C 319.485,295.076 317.152,294.41 314.5,294.5C 312.565,293.85 310.565,293.517 308.5,293.5C 304.924,292.515 301.258,291.848 297.5,291.5C 292.761,290.815 288.095,289.815 283.5,288.5C 280.495,286.723 277.162,285.723 273.5,285.5C 270.572,285.435 267.905,284.768 265.5,283.5C 263.485,282.076 261.152,281.41 258.5,281.5C 258.167,281.5 257.833,281.5 257.5,281.5C 255.636,280.207 253.636,280.207 251.5,281.5C 250.873,282.417 250.539,283.417 250.5,284.5C 249.094,284.973 248.427,285.973 248.5,287.5C 247.094,287.973 246.427,288.973 246.5,290.5C 245.094,290.973 244.427,291.973 244.5,293.5C 242.05,295.629 240.383,298.296 239.5,301.5C 238.094,301.973 237.427,302.973 237.5,304.5C 235.273,305.401 234.273,307.067 234.5,309.5C 227.832,318.159 222.165,327.493 217.5,337.5C 214.479,341.568 211.479,345.568 208.5,349.5C 208.5,349.167 208.5,348.833 208.5,348.5C 206.369,337.685 204.036,327.019 201.5,316.5C 201.57,312.575 200.903,308.909 199.5,305.5C 199.5,303.167 199.5,300.833 199.5,298.5C 199.932,295.123 199.265,292.123 197.5,289.5C 196.613,280.183 195.946,270.85 195.5,261.5C 194.5,261.5 193.5,261.5 192.5,261.5C 191.209,261.737 190.209,261.404 189.5,260.5C 187.562,258.837 185.228,258.171 182.5,258.5C 182.389,257.883 182.056,257.383 181.5,257C 177.418,255.816 173.418,254.649 169.5,253.5C 167.214,253.405 165.214,252.738 163.5,251.5C 162.22,250.069 160.553,249.402 158.5,249.5C 157.209,249.737 156.209,249.404 155.5,248.5C 155.389,247.883 155.056,247.383 154.5,247C 151.479,246.151 148.479,245.317 145.5,244.5C 144.508,244.672 143.842,244.338 143.5,243.5C 142.365,241.787 140.698,241.12 138.5,241.5C 136.824,239.166 134.491,238.166 131.5,238.5C 129.597,238.204 127.93,237.537 126.5,236.5C 125.235,235.521 123.901,234.521 122.5,233.5C 123.34,232.265 124.34,231.265 125.5,230.5C 126.873,230.657 128.207,230.49 129.5,230C 132.596,228.128 135.596,226.295 138.5,224.5C 142.165,224.498 145.165,223.165 147.5,220.5C 151.836,220.163 155.503,218.496 158.5,215.5C 160.927,215.477 163.26,214.977 165.5,214C 171.47,211.607 177.136,208.774 182.5,205.5C 184.698,205.88 186.365,205.213 187.5,203.5C 189.936,203.683 192.103,203.016 194,201.5C 194.542,193.165 195.042,184.831 195.5,176.5C 197.776,170.845 198.776,164.845 198.5,158.5C 198.5,156.833 198.5,155.167 198.5,153.5C 198.298,151.05 198.631,148.717 199.5,146.5C 200.785,143.411 201.451,140.078 201.5,136.5C 201.7,133.37 202.366,130.37 203.5,127.5C 204.35,124.136 205.517,120.803 207,117.5C 207.852,118.571 208.685,119.571 209.5,120.5 Z"/></g>
<g><path style="opacity:0.263" fill="#b0b0b0" d="M 212.5,125.5 C 214.25,126.659 215.25,128.326 215.5,130.5C 213.75,129.341 212.75,127.674 212.5,125.5 Z"/></g>
<g><path style="opacity:0.161" fill="#b9b8b9" d="M 465.5,125.5 C 467.914,126.911 469.581,128.911 470.5,131.5C 468.086,130.089 466.419,128.089 465.5,125.5 Z"/></g>
<g><path style="opacity:0.235" fill="#c1c0bf" d="M 215.5,130.5 C 216.906,130.973 217.573,131.973 217.5,133.5C 216.094,133.027 215.427,132.027 215.5,130.5 Z"/></g>
<g><path style="opacity:0.341" fill="#aeacac" d="M 471.5,133.5 C 472.906,133.973 473.573,134.973 473.5,136.5C 472.094,136.027 471.427,135.027 471.5,133.5 Z"/></g>
<g><path style="opacity:0.306" fill="#b5b5b3" d="M 218.5,135.5 C 220.262,136.262 221.262,137.596 221.5,139.5C 219.738,138.738 218.738,137.404 218.5,135.5 Z"/></g>
<g><path style="opacity:0.765" fill="#8e8d8d" d="M 30.5,124.5 C 28.3349,130.975 25.3349,136.975 21.5,142.5C 23.734,135.985 26.734,129.985 30.5,124.5 Z"/></g>
<g><path style="opacity:0.361" fill="#a7a6a6" d="M 473.5,136.5 C 475.262,137.262 476.262,138.596 476.5,140.5C 474.738,139.738 473.738,138.404 473.5,136.5 Z"/></g>
<g><path style="opacity:0.212" fill="#bdbcbc" d="M 60.5,128.5 C 55.0746,149.025 52.0746,169.692 51.5,190.5C 49.5,193.167 47.5,195.833 45.5,198.5C 46.6334,195.729 47.6334,192.896 48.5,190C 48.2272,188.467 47.8938,186.967 47.5,185.5C 48.5,185.833 49.1667,186.5 49.5,187.5C 49.56,188.043 49.8933,188.376 50.5,188.5C 51.4959,182.537 51.8293,176.537 51.5,170.5C 52.9473,157.157 55.2806,143.823 58.5,130.5C 58.7472,129.287 59.4138,128.62 60.5,128.5 Z"/></g>
<g><path style="opacity:0.231" fill="#bebebd" d="M 201.5,136.5 C 201.451,140.078 200.785,143.411 199.5,146.5C 199.322,142.878 199.989,139.544 201.5,136.5 Z"/></g>
<g><path style="opacity:0.282" fill="#b5b4b3" d="M 223.5,143.5 C 224.906,143.973 225.573,144.973 225.5,146.5C 224.094,146.027 223.427,145.027 223.5,143.5 Z"/></g>
<g><path style="opacity:0.514" fill="#9d9c9c" d="M 476.5,140.5 C 478.199,142.566 479.532,144.9 480.5,147.5C 478.058,145.879 476.725,143.546 476.5,140.5 Z"/></g>
<g><path style="opacity:0.22" fill="#b7b5b6" d="M 225.5,146.5 C 226.906,146.973 227.573,147.973 227.5,149.5C 226.094,149.027 225.427,148.027 225.5,146.5 Z"/></g>
<g><path style="opacity:0.239" fill="#a1a0a0" d="M 415.5,147.5 C 399.615,147.601 383.949,148.934 368.5,151.5C 367.5,151.5 366.5,151.5 365.5,151.5C 381.982,147.355 398.648,146.021 415.5,147.5 Z"/></g>
<g><path style="opacity:0.004" fill="#b9b8b8" d="M 415.5,147.5 C 417.531,148.539 418.864,150.205 419.5,152.5C 417.457,151.421 416.124,149.754 415.5,147.5 Z"/></g>
<g><path style="opacity:0.573" fill="#8e8d8d" d="M 349.5,147.5 C 348.243,150.427 346.243,152.761 343.5,154.5C 344.757,151.573 346.757,149.239 349.5,147.5 Z"/></g>
<g><path style="opacity:0.537" fill="#a6a6a6" d="M 460.5,150.5 C 465.703,151.009 470.37,152.676 474.5,155.5C 469.883,154.486 465.216,152.82 460.5,150.5 Z"/></g>
<g><path style="opacity:0.875" fill="#71706f" d="M 480.5,147.5 C 481.674,148.514 482.34,149.847 482.5,151.5C 480.824,150.817 480.157,149.483 480.5,147.5 Z"/></g>
<g><path style="opacity:0.165" fill="#979696" d="M 365.5,151.5 C 364.5,152.167 363.5,152.833 362.5,153.5C 359.518,153.963 356.518,154.296 353.5,154.5C 352.167,154.5 350.833,154.5 349.5,154.5C 354.606,152.956 359.939,151.956 365.5,151.5 Z"/></g>
<g><path style="opacity:0.024" fill="#dddddd" d="M 365.5,151.5 C 366.5,151.5 367.5,151.5 368.5,151.5C 367.01,153.28 365.01,153.946 362.5,153.5C 363.5,152.833 364.5,152.167 365.5,151.5 Z"/></g>
<g><path style="opacity:0.522" fill="#9c9c9c" d="M 20.5,144.5 C 19.5505,149.72 17.5505,154.387 14.5,158.5C 15.5537,153.311 17.5537,148.644 20.5,144.5 Z"/></g>
<g><path style="opacity:0.267" fill="#acacac" d="M 228.5,151.5 C 229.906,151.973 230.573,152.973 230.5,154.5C 229.094,154.027 228.427,153.027 228.5,151.5 Z"/></g>
<g><path style="opacity:0.231" fill="#b3b3b2" d="M 419.5,152.5 C 422.605,155.275 424.938,158.608 426.5,162.5C 423.395,159.725 421.062,156.392 419.5,152.5 Z"/></g>
<g><path style="opacity:0.714" fill="#929091" d="M 474.5,155.5 C 476.698,155.12 478.365,155.787 479.5,157.5C 477.447,157.598 475.78,156.931 474.5,155.5 Z"/></g>
<g><path style="opacity:0.302" fill="#b5b3b4" d="M 230.5,154.5 C 232.262,155.262 233.262,156.596 233.5,158.5C 231.738,157.738 230.738,156.404 230.5,154.5 Z"/></g>
<g><path style="opacity:0.443" fill="#9f9f9e" d="M 482.5,151.5 C 484.245,153.033 485.245,155.033 485.5,157.5C 483.755,155.967 482.755,153.967 482.5,151.5 Z"/></g>
<g><path style="opacity:0.482" fill="#a8a7a7" d="M 343.5,154.5 C 345.259,154.954 347.259,154.954 349.5,154.5C 350.833,154.5 352.167,154.5 353.5,154.5C 350.014,155.533 346.347,156.367 342.5,157C 341.672,158.992 340.339,160.492 338.5,161.5C 338.511,159.983 339.177,158.816 340.5,158C 339.667,157.833 338.833,157.667 338,157.5C 334.286,158.869 330.453,159.536 326.5,159.5C 331.973,157.465 337.64,155.798 343.5,154.5 Z"/></g>
<g><path style="opacity:0.2" fill="#a6a6a5" d="M 459.5,150.5 C 458.127,150.343 456.793,150.51 455.5,151C 457.52,156.281 458.52,161.781 458.5,167.5C 456.927,161.313 455.594,154.98 454.5,148.5C 456.553,148.402 458.22,149.069 459.5,150.5 Z"/></g>
<g><path style="opacity:0.259" fill="#b7b7b7" d="M 479.5,157.5 C 481.027,157.427 482.027,158.094 482.5,159.5C 480.973,159.573 479.973,158.906 479.5,157.5 Z"/></g>
<g><path style="opacity:0.016" fill="#b4b3b3" d="M 40.5,174.5 C 36.8793,170.929 34.546,166.596 33.5,161.5C 32.0413,161.433 30.7079,161.766 29.5,162.5C 29.8859,159.738 31.2192,158.738 33.5,159.5C 36.1183,164.401 38.4516,169.401 40.5,174.5 Z"/></g>
<g><path style="opacity:0.129" fill="#cbcbca" d="M 233.5,158.5 C 234.906,158.973 235.573,159.973 235.5,161.5C 234.094,161.027 233.427,160.027 233.5,158.5 Z"/></g>
<g><path style="opacity:0.333" fill="#afaeae" d="M 326.5,159.5 C 322.761,161.102 318.761,162.102 314.5,162.5C 318.163,160.584 322.163,159.584 326.5,159.5 Z"/></g>
<g><path style="opacity:0.339" fill="#ababab" d="M 485.5,157.5 C 486.479,158.765 487.479,160.099 488.5,161.5C 488.192,162.308 487.692,162.975 487,163.5C 485.333,162.267 483.833,160.933 482.5,159.5C 483.496,159.414 484.329,159.748 485,160.5C 485.483,159.552 485.649,158.552 485.5,157.5 Z"/></g>
<g><path style="opacity:0.537" fill="#a9a8a7" d="M 14.5,158.5 C 14.5905,161.152 13.9238,163.485 12.5,165.5C 12.1706,162.772 12.8372,160.438 14.5,158.5 Z"/></g>
<g><path style="opacity:0.055" fill="#cacaca" d="M 198.5,153.5 C 198.5,155.167 198.5,156.833 198.5,158.5C 197.833,160.833 197.167,163.167 196.5,165.5C 196.198,161.21 196.864,157.21 198.5,153.5 Z"/></g>
<g><path style="opacity:0.431" fill="#acacac" d="M 314.5,162.5 C 312.095,163.768 309.428,164.435 306.5,164.5C 308.78,162.777 311.447,162.111 314.5,162.5 Z"/></g>
<g><path style="opacity:0.027" fill="#c9c8c7" d="M 337.5,162.5 C 337.262,164.404 336.262,165.738 334.5,166.5C 334.738,164.596 335.738,163.262 337.5,162.5 Z"/></g>
<g><path style="opacity:0.027" fill="#cecdcd" d="M 28.5,163.5 C 28.2624,165.404 27.2624,166.738 25.5,167.5C 25.7376,165.596 26.7376,164.262 28.5,163.5 Z"/></g>
<g><path style="opacity:0.227" fill="#bcbcbc" d="M 426.5,162.5 C 428.95,164.629 430.617,167.296 431.5,170.5C 429.12,168.418 427.454,165.751 426.5,162.5 Z"/></g>
<g><path style="opacity:0.957" fill="#5e5d5c" d="M 198.5,158.5 C 198.776,164.845 197.776,170.845 195.5,176.5C 195.323,172.766 195.656,169.099 196.5,165.5C 197.167,163.167 197.833,160.833 198.5,158.5 Z"/></g>
<g><path style="opacity:0.412" fill="#a4a4a4" d="M 237.5,165.5 C 239.262,166.262 240.262,167.596 240.5,169.5C 238.738,168.738 237.738,167.404 237.5,165.5 Z"/></g>
<g><path style="opacity:0.714" fill="#828180" d="M 12.5,165.5 C 12.5905,168.152 11.9238,170.485 10.5,172.5C 10.5,171.833 10.5,171.167 10.5,170.5C 10.7959,168.597 11.4625,166.93 12.5,165.5 Z"/></g>
<g><path style="opacity:0.118" fill="#cdcdcd" d="M 334.5,166.5 C 334.446,168.632 333.446,169.965 331.5,170.5C 331.738,168.596 332.738,167.262 334.5,166.5 Z"/></g>
<g><path style="opacity:0.18" fill="#b8b8b8" d="M 25.5,167.5 C 25.2624,169.404 24.2624,170.738 22.5,171.5C 22.7376,169.596 23.7376,168.262 25.5,167.5 Z"/></g>
<g><path style="opacity:0.239" fill="#bfbebe" d="M 240.5,169.5 C 241.906,169.973 242.573,170.973 242.5,172.5C 241.094,172.027 240.427,171.027 240.5,169.5 Z"/></g>
<g><path style="opacity:0.612" fill="#9e9d9d" d="M 302.5,165.5 C 289.15,170.28 275.483,174.28 261.5,177.5C 274.861,172.716 288.528,168.716 302.5,165.5 Z"/></g>
<g><path style="opacity:0.043" fill="#c7c6c6" d="M 330.5,171.5 C 330.262,173.404 329.262,174.738 327.5,175.5C 327.738,173.596 328.738,172.262 330.5,171.5 Z"/></g>
<g><path style="opacity:0.051" fill="#d4d4d4" d="M 10.5,170.5 C 10.5,171.167 10.5,171.833 10.5,172.5C 10.5,172.833 10.5,173.167 10.5,173.5C 9.83333,174.5 9.16667,175.5 8.5,176.5C 8.25939,174.102 8.92606,172.102 10.5,170.5 Z"/></g>
<g><path style="opacity:0.141" fill="#c0bfbe" d="M 22.5,171.5 C 20.9379,175.392 18.6046,178.725 15.5,181.5C 17.0621,177.608 19.3954,174.275 22.5,171.5 Z"/></g>
<g><path style="opacity:0.2" fill="#c8c7c7" d="M 431.5,170.5 C 433.822,171.802 435.155,173.802 435.5,176.5C 433.674,174.853 432.34,172.853 431.5,170.5 Z"/></g>
<g><path style="opacity:0.271" fill="#bebebc" d="M 242.5,172.5 C 243.906,172.973 244.573,173.973 244.5,175.5C 243.094,175.027 242.427,174.027 242.5,172.5 Z"/></g>
<g><path style="opacity:0.286" fill="#aeadad" d="M 40.5,174.5 C 42.2503,175.659 43.2503,177.326 43.5,179.5C 41.7497,178.341 40.7497,176.674 40.5,174.5 Z"/></g>
<g><path style="opacity:0.024" fill="#d0cfcf" d="M 327.5,175.5 C 326.864,177.795 325.531,179.461 323.5,180.5C 324.124,178.246 325.457,176.579 327.5,175.5 Z"/></g>
<g><path style="opacity:0.29" fill="#b9b8b8" d="M 244.5,175.5 C 245.906,175.973 246.573,176.973 246.5,178.5C 245.094,178.027 244.427,177.027 244.5,175.5 Z"/></g>
<g><path style="opacity:0.098" fill="#c5c4c5" d="M 258.5,178.5 C 256.786,179.738 254.786,180.405 252.5,180.5C 254.102,178.926 256.102,178.259 258.5,178.5 Z"/></g>
<g><path style="opacity:0.18" fill="#bcbcbc" d="M 435.5,176.5 C 436.906,176.973 437.573,177.973 437.5,179.5C 436.094,179.027 435.427,178.027 435.5,176.5 Z"/></g>
<g><path style="opacity:0.753" fill="#585756" d="M 10.5,173.5 C 10.5905,176.152 9.92381,178.485 8.5,180.5C 8.5,179.5 8.5,178.5 8.5,177.5C 8.5,177.167 8.5,176.833 8.5,176.5C 9.16667,175.5 9.83333,174.5 10.5,173.5 Z"/></g>
<g><path style="opacity:0.329" fill="#bab8b9" d="M 246.5,178.5 C 247.82,179.942 249.486,180.608 251.5,180.5C 250.399,181.598 249.066,181.765 247.5,181C 246.748,180.329 246.414,179.496 246.5,178.5 Z"/></g>
<g><path style="opacity:0.522" fill="#b1b0b0" d="M 8.5,177.5 C 8.5,178.5 8.5,179.5 8.5,180.5C 8.3404,182.153 7.67373,183.486 6.5,184.5C 6.40953,181.848 7.07619,179.515 8.5,177.5 Z"/></g>
<g><path style="opacity:0.176" fill="#bab8b8" d="M 43.5,179.5 C 44.9063,179.973 45.573,180.973 45.5,182.5C 44.0937,182.027 43.427,181.027 43.5,179.5 Z"/></g>
<g><path style="opacity:0.063" fill="#c4c3c4" d="M 323.5,180.5 C 323.573,182.027 322.906,183.027 321.5,183.5C 321.427,181.973 322.094,180.973 323.5,180.5 Z"/></g>
<g><path style="opacity:0.192" fill="#c3c3c2" d="M 437.5,179.5 C 439.25,180.659 440.25,182.326 440.5,184.5C 438.75,183.341 437.75,181.674 437.5,179.5 Z"/></g>
<g><path style="opacity:0.724" fill="#4a4947" d="M 51.5,170.5 C 51.8293,176.537 51.4959,182.537 50.5,188.5C 49.8933,188.376 49.56,188.043 49.5,187.5C 50.1667,181.833 50.8333,176.167 51.5,170.5 Z"/></g>
<g><path style="opacity:0.165" fill="#b8b8b8" d="M 45.5,182.5 C 46.9063,182.973 47.573,183.973 47.5,185.5C 46.0937,185.027 45.427,184.027 45.5,182.5 Z"/></g>
<g><path style="opacity:0.02" fill="#bdbcbd" d="M 195.5,176.5 C 195.042,184.831 194.542,193.165 194,201.5C 192.103,203.016 189.936,203.683 187.5,203.5C 189.291,202.609 191.124,201.609 193,200.5C 193.114,192.275 193.948,184.275 195.5,176.5 Z"/></g>
<g><path style="opacity:0.078" fill="#c0c0bf" d="M 321.5,183.5 C 319.984,186.533 317.984,189.2 315.5,191.5C 316.529,188.109 318.529,185.443 321.5,183.5 Z"/></g>
<g><path style="opacity:0.078" fill="#c8c7c7" d="M 440.5,184.5 C 442.588,186.336 443.921,188.669 444.5,191.5C 442.412,189.664 441.079,187.331 440.5,184.5 Z"/></g>
<g><path style="opacity:0.055" fill="#c7c5c6" d="M 314.5,192.5 C 314.573,194.027 313.906,195.027 312.5,195.5C 312.427,193.973 313.094,192.973 314.5,192.5 Z"/></g>
<g><path style="opacity:0.914" fill="#6f6e6f" d="M 6.5,184.5 C 6.19,187.713 6.52333,190.713 7.5,193.5C 7.15202,195.713 6.31869,197.713 5,199.5C 4.50999,198.207 4.34332,196.873 4.5,195.5C 4.64593,191.613 5.3126,187.946 6.5,184.5 Z"/></g>
<g><path style="opacity:0.047" fill="#bfbfbf" d="M 312.5,195.5 C 312.262,197.404 311.262,198.738 309.5,199.5C 309.738,197.596 310.738,196.262 312.5,195.5 Z"/></g>
<g><path style="opacity:0.094" fill="#c6c6c6" d="M 14.5,183.5 C 11.2547,189.66 8.25474,195.993 5.5,202.5C 3.12965,203.476 2.12965,202.476 2.5,199.5C 2.34024,197.645 3.00691,196.312 4.5,195.5C 4.34332,196.873 4.50999,198.207 5,199.5C 6.31869,197.713 7.15202,195.713 7.5,193.5C 9.3409,189.817 11.6742,186.484 14.5,183.5 Z"/></g>
<g><path style="opacity:0.016" fill="#cdcdcd" d="M 51.5,190.5 C 52.8792,196.617 53.5459,202.95 53.5,209.5C 52.8333,206.5 52.1667,203.5 51.5,200.5C 51.5,197.167 51.5,193.833 51.5,190.5 Z"/></g>
<g><path style="opacity:0.09" fill="#bebdbd" d="M 309.5,199.5 C 309.262,201.404 308.262,202.738 306.5,203.5C 306.738,201.596 307.738,200.262 309.5,199.5 Z"/></g>
<g><path style="opacity:0.259" fill="#b3b1b2" d="M 44.5,200.5 C 44.573,202.027 43.9063,203.027 42.5,203.5C 42.427,201.973 43.0937,200.973 44.5,200.5 Z"/></g>
<g><path style="opacity:1" fill="#22211f" d="M 51.5,190.5 C 51.5,193.833 51.5,197.167 51.5,200.5C 51.216,206.417 51.8827,212.084 53.5,217.5C 53.5488,221.078 54.2154,224.411 55.5,227.5C 55.5,228.167 55.5,228.833 55.5,229.5C 55.3359,232.187 55.5026,234.854 56,237.5C 56.5194,238.516 57.3527,239.182 58.5,239.5C 73.0811,237.042 87.7478,235.375 102.5,234.5C 107.695,234.179 112.695,234.513 117.5,235.5C 117.5,235.833 117.5,236.167 117.5,236.5C 117.167,237.5 116.5,238.167 115.5,238.5C 112.911,239.419 110.911,241.086 109.5,243.5C 108.833,244.833 107.833,245.833 106.5,246.5C 103.911,247.419 101.911,249.086 100.5,251.5C 99.5,253.167 98.1667,254.5 96.5,255.5C 95.5,255.833 94.8333,256.5 94.5,257.5C 92.8333,259.833 90.8333,261.833 88.5,263.5C 86.5,264.833 84.8333,266.5 83.5,268.5C 80.7573,270.239 78.7573,272.573 77.5,275.5C 76.5,275.833 75.8333,276.5 75.5,277.5C 73.4131,278.585 72.0798,280.251 71.5,282.5C 69.8333,283.5 68.5,284.833 67.5,286.5C 66.8614,287.097 66.528,287.93 66.5,289C 66.3866,290.699 67.0532,291.866 68.5,292.5C 69.6752,299.698 72.0085,306.365 75.5,312.5C 75.5,312.833 75.5,313.167 75.5,313.5C 75.6596,315.153 76.3263,316.486 77.5,317.5C 78.404,318.209 78.7373,319.209 78.5,320.5C 79.4316,325.689 81.4316,330.356 84.5,334.5C 84.5919,338.684 86.2586,342.017 89.5,344.5C 89.7373,345.791 89.404,346.791 88.5,347.5C 86.847,347.34 85.5137,346.674 84.5,345.5C 84.0269,344.094 83.0269,343.427 81.5,343.5C 79.847,343.34 78.5137,342.674 77.5,341.5C 77.0269,340.094 76.0269,339.427 74.5,339.5C 74.0269,338.094 73.0269,337.427 71.5,337.5C 70.5084,337.672 69.8417,337.338 69.5,336.5C 68.7377,334.738 67.4044,333.738 65.5,333.5C 64.5084,333.672 63.8417,333.338 63.5,332.5C 62.5637,331.026 61.2303,330.026 59.5,329.5C 58.7377,327.738 57.4044,326.738 55.5,326.5C 55.0269,325.094 54.0269,324.427 52.5,324.5C 51.4154,322.413 49.7488,321.08 47.5,320.5C 46.8595,318.668 45.8595,318.335 44.5,319.5C 36.9365,332.362 31.4365,346.028 28,360.5C 27.1667,358 26.3333,355.5 25.5,353C 25.1639,351.97 24.4972,351.47 23.5,351.5C 22.5489,350.081 22.2155,348.415 22.5,346.5C 21.9119,340.539 20.5785,334.873 18.5,329.5C 18.3135,324.155 17.9801,318.822 17.5,313.5C 17.6664,305.826 17.4997,298.159 17,290.5C 16.6174,289.944 16.1174,289.611 15.5,289.5C 14.8645,287.205 13.5311,285.539 11.5,284.5C 11.573,282.973 10.9063,281.973 9.5,281.5C 9.25027,279.326 8.25027,277.659 6.5,276.5C 4.54136,272.126 2.8747,267.626 1.5,263C 1.86269,260.808 2.86269,258.974 4.5,257.5C 6.85254,256.66 8.85254,255.326 10.5,253.5C 12.1815,251.992 14.1815,250.992 16.5,250.5C 19.1573,250.065 21.4907,249.065 23.5,247.5C 23.3284,246.508 23.6618,245.842 24.5,245.5C 28.1837,235.787 32.1837,226.12 36.5,216.5C 38.4383,212.957 40.1049,209.29 41.5,205.5C 41.3284,204.508 41.6618,203.842 42.5,203.5C 43.9063,203.027 44.573,202.027 44.5,200.5C 44.3284,199.508 44.6618,198.842 45.5,198.5C 47.5,195.833 49.5,193.167 51.5,190.5 Z"/></g>
<g><path style="opacity:0.624" fill="#a3a2a1" d="M 187.5,203.5 C 186.365,205.213 184.698,205.88 182.5,205.5C 183.93,204.463 185.597,203.796 187.5,203.5 Z"/></g>
<g><path style="opacity:0.114" fill="#b9b8b8" d="M 306.5,203.5 C 305.567,206.37 303.9,208.704 301.5,210.5C 302.433,207.63 304.1,205.296 306.5,203.5 Z"/></g>
<g><path style="opacity:0.788" fill="#5b5a5a" d="M 51.5,200.5 C 52.1667,203.5 52.8333,206.5 53.5,209.5C 53.5,210.833 53.5,212.167 53.5,213.5C 53.5,214.833 53.5,216.167 53.5,217.5C 51.8827,212.084 51.216,206.417 51.5,200.5 Z"/></g>
<g><path style="opacity:0.702" fill="#8e8d8d" d="M 182.5,205.5 C 177.136,208.774 171.47,211.607 165.5,214C 163.26,214.977 160.927,215.477 158.5,215.5C 166.063,211.267 174.063,207.934 182.5,205.5 Z"/></g>
<g><path style="opacity:0.216" fill="#b9b8b8" d="M 41.5,205.5 C 40.1049,209.29 38.4383,212.957 36.5,216.5C 36.1667,216.5 35.8333,216.5 35.5,216.5C 36.7417,212.345 38.7417,208.678 41.5,205.5 Z"/></g>
<g><path style="opacity:0.239" fill="#b1b1b1" d="M 444.5,191.5 C 450.228,199.606 455.228,208.272 459.5,217.5C 459.5,217.833 459.5,218.167 459.5,218.5C 454.168,209.797 449.168,200.797 444.5,191.5 Z"/></g>
<g><path style="opacity:0.235" fill="#b7b6b6" d="M 458.5,167.5 C 460.347,176.936 461.514,186.603 462,196.5C 462.183,204.745 462.683,212.912 463.5,221C 462.62,222.356 462.286,223.856 462.5,225.5C 461.778,225.082 461.278,224.416 461,223.5C 459.214,226.958 457.881,230.624 457,234.5C 456.617,235.056 456.117,235.389 455.5,235.5C 456.38,230.525 458.047,225.859 460.5,221.5C 460.137,220.817 459.804,220.15 459.5,219.5C 460.821,216.402 461.488,212.902 461.5,209C 461.499,205.317 461.165,201.817 460.5,198.5C 460.127,188.146 459.461,177.813 458.5,167.5 Z"/></g>
<g><path style="opacity:0.74" fill="#585758" d="M 460.5,198.5 C 461.165,201.817 461.499,205.317 461.5,209C 461.488,212.902 460.821,216.402 459.5,219.5C 459.5,219.167 459.5,218.833 459.5,218.5C 459.5,218.167 459.5,217.833 459.5,217.5C 460.49,211.355 460.823,205.022 460.5,198.5 Z"/></g>
<g><path style="opacity:0.69" fill="#868685" d="M 158.5,215.5 C 155.503,218.496 151.836,220.163 147.5,220.5C 150.74,218.049 154.407,216.382 158.5,215.5 Z"/></g>
<g><path style="opacity:0.184" fill="#bababa" d="M 301.5,210.5 C 299.6,214.732 296.933,218.399 293.5,221.5C 295.4,217.268 298.067,213.601 301.5,210.5 Z"/></g>
<g><path style="opacity:0.569" fill="#afaeaf" d="M 53.5,213.5 C 55.1042,217.9 55.7709,222.566 55.5,227.5C 54.2154,224.411 53.5488,221.078 53.5,217.5C 53.5,216.167 53.5,214.833 53.5,213.5 Z"/></g>
<g><path style="opacity:0.012" fill="#cbcac9" d="M 293.5,221.5 C 293.262,223.404 292.262,224.738 290.5,225.5C 290.738,223.596 291.738,222.262 293.5,221.5 Z"/></g>
<g><path style="opacity:0.827" fill="#81807f" d="M 147.5,220.5 C 145.165,223.165 142.165,224.498 138.5,224.5C 141.088,222.375 144.088,221.042 147.5,220.5 Z"/></g>
<g><path style="opacity:0.235" fill="#9b9b9a" d="M 138.5,224.5 C 135.596,226.295 132.596,228.128 129.5,230C 128.207,230.49 126.873,230.657 125.5,230.5C 129.416,227.71 133.749,225.71 138.5,224.5 Z"/></g>
<g><path style="opacity:0.525" fill="#8f8e8e" d="M 35.5,216.5 C 35.8333,216.5 36.1667,216.5 36.5,216.5C 32.1837,226.12 28.1837,235.787 24.5,245.5C 26.8053,235.242 30.472,225.575 35.5,216.5 Z"/></g>
<g><path style="opacity:0.408" fill="#a3a3a2" d="M 290.5,225.5 C 290.256,228.263 288.923,230.429 286.5,232C 288.141,233.129 289.141,234.629 289.5,236.5C 287.648,235.48 286.315,233.98 285.5,232C 287.016,229.659 288.683,227.492 290.5,225.5 Z"/></g>
<g><path style="opacity:1" fill="#22211f" d="M 462.5,225.5 C 463.461,227.265 463.795,229.265 463.5,231.5C 463.376,237.069 464.043,242.402 465.5,247.5C 465.321,253.404 465.988,259.071 467.5,264.5C 467.5,264.833 467.5,265.167 467.5,265.5C 467.038,274.28 467.705,282.946 469.5,291.5C 470.739,291.058 471.739,290.391 472.5,289.5C 473.514,288.326 474.847,287.66 476.5,287.5C 481.987,284.921 486.987,281.588 491.5,277.5C 493.75,277.181 495.75,277.681 497.5,279C 496.446,281.382 495.779,283.882 495.5,286.5C 494.37,291.224 493.036,295.891 491.5,300.5C 491.5,300.833 491.5,301.167 491.5,301.5C 489.166,303.176 488.166,305.509 488.5,308.5C 486.896,309.287 486.229,310.62 486.5,312.5C 483.331,316.833 480.664,321.5 478.5,326.5C 476.336,328.822 474.669,331.489 473.5,334.5C 472.094,334.973 471.427,335.973 471.5,337.5C 471.5,338.167 471.167,338.5 470.5,338.5C 469.542,338.953 468.708,339.619 468,340.5C 467.503,343.146 467.336,345.813 467.5,348.5C 464.865,364.016 460.198,379.016 453.5,393.5C 453.043,394.298 452.376,394.631 451.5,394.5C 451.262,392.596 450.262,391.262 448.5,390.5C 447.527,387.865 445.86,385.865 443.5,384.5C 441.451,381.45 438.784,379.117 435.5,377.5C 433.833,374.833 432.167,374.833 430.5,377.5C 428.973,377.427 427.973,378.094 427.5,379.5C 420.159,383.504 412.826,387.504 405.5,391.5C 392.454,396.794 379.121,400.961 365.5,404C 366.823,403.184 367.489,402.017 367.5,400.5C 369.522,398.469 371.189,396.135 372.5,393.5C 376.237,389.698 379.237,385.365 381.5,380.5C 382.906,380.027 383.573,379.027 383.5,377.5C 384.906,377.027 385.573,376.027 385.5,374.5C 385.328,373.508 385.662,372.842 386.5,372.5C 387.906,372.027 388.573,371.027 388.5,369.5C 391.983,365.68 394.65,361.347 396.5,356.5C 398.377,355.341 398.877,353.674 398,351.5C 397.184,350.177 396.017,349.511 394.5,349.5C 393.738,347.738 392.404,346.738 390.5,346.5C 387.769,342.766 384.436,339.766 380.5,337.5C 376.5,332.833 372.167,328.5 367.5,324.5C 366.811,321.811 365.144,320.144 362.5,319.5C 361.585,317.246 360.252,315.246 358.5,313.5C 357.13,309.285 354.464,306.119 350.5,304C 353.146,303.503 355.813,303.336 358.5,303.5C 375.658,304.698 392.658,304.698 409.5,303.5C 415.5,303.5 421.5,303.5 427.5,303.5C 427.5,302.167 427.5,300.833 427.5,299.5C 428.326,296.515 429.659,293.849 431.5,291.5C 433.742,288.918 435.076,285.918 435.5,282.5C 437.625,279.912 438.958,276.912 439.5,273.5C 439.66,271.847 440.326,270.514 441.5,269.5C 442.931,268.22 443.598,266.553 443.5,264.5C 444.674,263.486 445.34,262.153 445.5,260.5C 449.148,255.517 451.481,249.851 452.5,243.5C 452.5,243.167 452.5,242.833 452.5,242.5C 453.674,241.486 454.34,240.153 454.5,238.5C 454.557,237.391 454.89,236.391 455.5,235.5C 456.117,235.389 456.617,235.056 457,234.5C 457.881,230.624 459.214,226.958 461,223.5C 461.278,224.416 461.778,225.082 462.5,225.5 Z"/></g>
<g><path style="opacity:0.89" fill="#4e4d4d" d="M 102.5,234.5 C 102.5,234.167 102.5,233.833 102.5,233.5C 108.176,233.334 113.843,233.501 119.5,234C 118.956,234.717 118.289,235.217 117.5,235.5C 112.695,234.513 107.695,234.179 102.5,234.5 Z"/></g>
<g><path style="opacity:0.227" fill="#c6c6c6" d="M 125.5,230.5 C 124.34,231.265 123.34,232.265 122.5,233.5C 123.901,234.521 125.235,235.521 126.5,236.5C 123.5,235.167 120.5,235.167 117.5,236.5C 117.5,236.167 117.5,235.833 117.5,235.5C 118.289,235.217 118.956,234.717 119.5,234C 113.843,233.501 108.176,233.334 102.5,233.5C 110.123,232.927 117.789,231.927 125.5,230.5 Z"/></g>
<g><path style="opacity:0.396" fill="#b1b0b0" d="M 55.5,229.5 C 56.7682,231.905 57.4349,234.572 57.5,237.5C 72.4554,235.686 87.4554,234.353 102.5,233.5C 102.5,233.833 102.5,234.167 102.5,234.5C 87.7478,235.375 73.0811,237.042 58.5,239.5C 57.3527,239.182 56.5194,238.516 56,237.5C 55.5026,234.854 55.3359,232.187 55.5,229.5 Z"/></g>
<g><path style="opacity:0.031" fill="#c5c4c4" d="M 289.5,236.5 C 290.833,236.5 291.5,237.167 291.5,238.5C 290.5,238.167 289.833,237.5 289.5,236.5 Z"/></g>
<g><path style="opacity:0.722" fill="#9e9d9e" d="M 131.5,238.5 C 134.491,238.166 136.824,239.166 138.5,241.5C 135.759,241.293 133.426,240.293 131.5,238.5 Z"/></g>
<g><path style="opacity:0.055" fill="#d8d8d8" d="M 454.5,238.5 C 454.34,240.153 453.674,241.486 452.5,242.5C 452.229,240.62 452.896,239.287 454.5,238.5 Z"/></g>
<g><path style="opacity:0.035" fill="#c7c6c7" d="M 115.5,238.5 C 114.089,240.914 112.089,242.581 109.5,243.5C 110.911,241.086 112.911,239.419 115.5,238.5 Z"/></g>
<g><path style="opacity:0.686" fill="#9c9b9a" d="M 138.5,241.5 C 140.698,241.12 142.365,241.787 143.5,243.5C 141.597,243.204 139.93,242.537 138.5,241.5 Z"/></g>
<g><path style="opacity:0.369" fill="#b8b7b7" d="M 291.5,238.5 C 293.587,239.585 294.92,241.251 295.5,243.5C 293.413,242.415 292.08,240.749 291.5,238.5 Z"/></g>
<g><path style="opacity:0.078" fill="#c7c7c7" d="M 145.5,244.5 C 148.479,245.317 151.479,246.151 154.5,247C 155.056,247.383 155.389,247.883 155.5,248.5C 151.723,248.066 148.39,246.733 145.5,244.5 Z"/></g>
<g><path style="opacity:0.361" fill="#afaeae" d="M 463.5,231.5 C 464.957,236.598 465.624,241.931 465.5,247.5C 464.043,242.402 463.376,237.069 463.5,231.5 Z"/></g>
<g><path style="opacity:0.098" fill="#c9c8c9" d="M 23.5,247.5 C 21.4907,249.065 19.1573,250.065 16.5,250.5C 18.3204,248.552 20.6538,247.552 23.5,247.5 Z"/></g>
<g><path style="opacity:0.251" fill="#b8b7b7" d="M 295.5,243.5 C 297.914,244.911 299.581,246.911 300.5,249.5C 298.086,248.089 296.419,246.089 295.5,243.5 Z"/></g>
<g><path style="opacity:0.69" fill="#969595" d="M 452.5,243.5 C 451.481,249.851 449.148,255.517 445.5,260.5C 447.039,254.434 449.372,248.767 452.5,243.5 Z"/></g>
<g><path style="opacity:0.047" fill="#c7c6c6" d="M 106.5,246.5 C 105.089,248.914 103.089,250.581 100.5,251.5C 101.911,249.086 103.911,247.419 106.5,246.5 Z"/></g>
<g><path style="opacity:0.078" fill="#cdcccc" d="M 158.5,249.5 C 160.553,249.402 162.22,250.069 163.5,251.5C 161.447,251.598 159.78,250.931 158.5,249.5 Z"/></g>
<g><path style="opacity:0.643" fill="#b3b2b1" d="M 300.5,249.5 C 303.573,251.569 305.906,254.236 307.5,257.5C 304.427,255.431 302.094,252.764 300.5,249.5 Z"/></g>
<g><path style="opacity:0.153" fill="#bebdbd" d="M 10.5,253.5 C 8.85254,255.326 6.85254,256.66 4.5,257.5C 5.80214,255.178 7.80214,253.845 10.5,253.5 Z"/></g>
<g><path style="opacity:0.075" fill="#b3b3b3" d="M 169.5,253.5 C 173.418,254.649 177.418,255.816 181.5,257C 182.056,257.383 182.389,257.883 182.5,258.5C 177.795,257.583 173.461,255.917 169.5,253.5 Z"/></g>
<g><path style="opacity:0.008" fill="#d0d0d0" d="M 96.5,255.5 C 96.5,256.833 95.8333,257.5 94.5,257.5C 94.8333,256.5 95.5,255.833 96.5,255.5 Z"/></g>
<g><path style="opacity:0.541" fill="#bdbdbd" d="M 307.5,257.5 C 310.243,259.239 312.243,261.573 313.5,264.5C 310.757,262.761 308.757,260.427 307.5,257.5 Z"/></g>
<g><path style="opacity:0.153" fill="#ababaa" d="M 182.5,258.5 C 185.228,258.171 187.562,258.837 189.5,260.5C 186.848,260.59 184.515,259.924 182.5,258.5 Z"/></g>
<g><path style="opacity:0.267" fill="#b6b5b5" d="M 465.5,247.5 C 467.012,252.929 467.679,258.596 467.5,264.5C 465.988,259.071 465.321,253.404 465.5,247.5 Z"/></g>
<g><path style="opacity:0.059" fill="#cdcccd" d="M 445.5,260.5 C 445.34,262.153 444.674,263.486 443.5,264.5C 443.229,262.62 443.896,261.287 445.5,260.5 Z"/></g>
<g><path style="opacity:0.012" fill="#d1d0d0" d="M 88.5,263.5 C 87.8333,266.167 86.1667,267.833 83.5,268.5C 84.8333,266.5 86.5,264.833 88.5,263.5 Z"/></g>
<g><path style="opacity:0.027" fill="#dcdcdc" d="M 313.5,264.5 C 315.5,264.5 316.5,265.5 316.5,267.5C 315.167,266.833 314.167,265.833 313.5,264.5 Z"/></g>
<g><path style="opacity:0.004" fill="#c2c2c2" d="M 4.5,257.5 C 2.86269,258.974 1.86269,260.808 1.5,263C 2.8747,267.626 4.54136,272.126 6.5,276.5C 3.36941,272.571 1.03608,268.237 -0.5,263.5C -0.5,262.833 -0.5,262.167 -0.5,261.5C 0.558761,259.445 2.22543,258.111 4.5,257.5 Z"/></g>
<g><path style="opacity:0.094" fill="#d5d5d5" d="M 443.5,264.5 C 443.598,266.553 442.931,268.22 441.5,269.5C 441.402,267.447 442.069,265.78 443.5,264.5 Z"/></g>
<g><path style="opacity:0.42" fill="#c6c5c6" d="M 316.5,267.5 C 318.587,268.585 319.92,270.251 320.5,272.5C 318.413,271.415 317.08,269.749 316.5,267.5 Z"/></g>
<g><path style="opacity:0.067" fill="#d5d5d4" d="M 501.5,264.5 C 501.5,267.5 501.5,270.5 501.5,273.5C 500.349,275.779 499.349,278.112 498.5,280.5C 499.046,276.117 499.546,271.783 500,267.5C 498.264,269.063 496.764,270.73 495.5,272.5C 496.345,268.985 498.345,266.319 501.5,264.5 Z"/></g>
<g><path style="opacity:0.043" fill="#bfbebf" d="M 83.5,268.5 C 82.2427,271.427 80.2427,273.761 77.5,275.5C 78.7573,272.573 80.7573,270.239 83.5,268.5 Z"/></g>
<g><path style="opacity:0.004" fill="#d8d7d8" d="M 320.5,272.5 C 322.833,272.833 324.167,274.167 324.5,276.5C 322.833,275.5 321.5,274.167 320.5,272.5 Z"/></g>
<g><path style="opacity:1" fill="#3f3e3d" d="M 498.5,280.5 C 498.768,282.099 498.434,283.432 497.5,284.5C 496.833,285.167 496.167,285.833 495.5,286.5C 495.779,283.882 496.446,281.382 497.5,279C 495.75,277.681 493.75,277.181 491.5,277.5C 492.5,276.167 493.5,274.833 494.5,273.5C 494.5,272.833 494.833,272.5 495.5,272.5C 496.764,270.73 498.264,269.063 500,267.5C 499.546,271.783 499.046,276.117 498.5,280.5 Z"/></g>
<g><path style="opacity:0.008" fill="#cfcdce" d="M 77.5,275.5 C 77.5,276.833 76.8333,277.5 75.5,277.5C 75.8333,276.5 76.5,275.833 77.5,275.5 Z"/></g>
<g><path style="opacity:0.141" fill="#c6c6c6" d="M 439.5,273.5 C 438.958,276.912 437.625,279.912 435.5,282.5C 436.042,279.088 437.375,276.088 439.5,273.5 Z"/></g>
<g><path style="opacity:0.494" fill="#bfbebe" d="M 324.5,276.5 C 328.234,279.231 331.234,282.564 333.5,286.5C 329.766,283.769 326.766,280.436 324.5,276.5 Z"/></g>
<g><path style="opacity:0.227" fill="#bbbaba" d="M 6.5,276.5 C 8.25027,277.659 9.25027,279.326 9.5,281.5C 7.74973,280.341 6.74973,278.674 6.5,276.5 Z"/></g>
<g><path style="opacity:0.098" fill="#bab9b9" d="M 192.5,261.5 C 193.5,261.5 194.5,261.5 195.5,261.5C 195.946,270.85 196.613,280.183 197.5,289.5C 196.04,281.646 194.706,273.646 193.5,265.5C 194.789,263.781 194.455,262.447 192.5,261.5 Z"/></g>
<g><path style="opacity:0.067" fill="#bebebe" d="M 75.5,277.5 C 74.9202,279.749 73.5869,281.415 71.5,282.5C 72.0798,280.251 73.4131,278.585 75.5,277.5 Z"/></g>
<g><path style="opacity:0.529" fill="#afafaf" d="M 494.5,273.5 C 493.5,274.833 492.5,276.167 491.5,277.5C 486.987,281.588 481.987,284.921 476.5,287.5C 482.805,283.191 488.805,278.525 494.5,273.5 Z"/></g>
<g><path style="opacity:0.188" fill="#c0c0c0" d="M 257.5,281.5 C 254.562,281.273 252.229,282.273 250.5,284.5C 250.539,283.417 250.873,282.417 251.5,281.5C 253.636,280.207 255.636,280.207 257.5,281.5 Z"/></g>
<g><path style="opacity:0.439" fill="#a7a6a6" d="M 258.5,281.5 C 261.152,281.41 263.485,282.076 265.5,283.5C 264.883,283.611 264.383,283.944 264,284.5C 262.124,283.391 260.291,282.391 258.5,281.5 Z"/></g>
<g><path style="opacity:0.09" fill="#cfcecf" d="M 9.5,281.5 C 10.9063,281.973 11.573,282.973 11.5,284.5C 10.0937,284.027 9.42702,283.027 9.5,281.5 Z"/></g>
<g><path style="opacity:0.016" fill="#c5c4c5" d="M 71.5,282.5 C 69.5721,284.781 68.5721,287.447 68.5,290.5C 67.5655,289.432 67.2322,288.099 67.5,286.5C 68.5,284.833 69.8333,283.5 71.5,282.5 Z"/></g>
<g><path style="opacity:0.482" fill="#9e9d9d" d="M 11.5,284.5 C 13.5311,285.539 14.8645,287.205 15.5,289.5C 13.457,288.421 12.1237,286.754 11.5,284.5 Z"/></g>
<g><path style="opacity:0.086" fill="#d7d5d6" d="M 250.5,284.5 C 250.573,286.027 249.906,287.027 248.5,287.5C 248.427,285.973 249.094,284.973 250.5,284.5 Z"/></g>
<g><path style="opacity:0.412" fill="#b2b2b2" d="M 273.5,285.5 C 277.162,285.723 280.495,286.723 283.5,288.5C 279.838,288.277 276.505,287.277 273.5,285.5 Z"/></g>
<g><path style="opacity:0.318" fill="#9f9e9e" d="M 467.5,265.5 C 468.717,273.307 469.384,281.307 469.5,289.5C 470.5,289.5 471.5,289.5 472.5,289.5C 471.739,290.391 470.739,291.058 469.5,291.5C 467.705,282.946 467.038,274.28 467.5,265.5 Z"/></g>
<g><path style="opacity:0.639" fill="#a1a1a1" d="M 333.5,286.5 C 335.882,288.215 337.882,290.215 339.5,292.5C 336.478,291.478 334.478,289.478 333.5,286.5 Z"/></g>
<g><path style="opacity:0.173" fill="#acacab" d="M 435.5,282.5 C 435.076,285.918 433.742,288.918 431.5,291.5C 432.042,288.088 433.375,285.088 435.5,282.5 Z"/></g>
<g><path style="opacity:0.231" fill="#bfbebf" d="M 497.5,284.5 C 496.702,290.414 494.702,295.747 491.5,300.5C 493.036,295.891 494.37,291.224 495.5,286.5C 496.167,285.833 496.833,285.167 497.5,284.5 Z"/></g>
<g><path style="opacity:0.184" fill="#c2c2c2" d="M 248.5,287.5 C 248.573,289.027 247.906,290.027 246.5,290.5C 246.427,288.973 247.094,287.973 248.5,287.5 Z"/></g>
<g><path style="opacity:0.957" fill="#514f50" d="M 67.5,286.5 C 67.2322,288.099 67.5655,289.432 68.5,290.5C 68.5,290.833 68.5,291.167 68.5,291.5C 68.5,291.833 68.5,292.167 68.5,292.5C 67.0532,291.866 66.3866,290.699 66.5,289C 66.528,287.93 66.8614,287.097 67.5,286.5 Z"/></g>
<g><path style="opacity:0.133" fill="#cbcaca" d="M 246.5,290.5 C 246.573,292.027 245.906,293.027 244.5,293.5C 244.427,291.973 245.094,290.973 246.5,290.5 Z"/></g>
<g><path style="opacity:0.016" fill="#b9b9b9" d="M 297.5,291.5 C 301.258,291.848 304.924,292.515 308.5,293.5C 308.5,293.833 308.5,294.167 308.5,294.5C 304.475,294.37 300.809,293.37 297.5,291.5 Z"/></g>
<g><path style="opacity:0.012" fill="#dad8da" d="M 339.5,292.5 C 340.833,292.5 341.5,293.167 341.5,294.5C 340.5,294.167 339.833,293.5 339.5,292.5 Z"/></g>
<g><path style="opacity:0.824" fill="#525051" d="M 197.5,289.5 C 199.265,292.123 199.932,295.123 199.5,298.5C 198.469,296.039 197.802,293.373 197.5,290.5C 197.5,290.167 197.5,289.833 197.5,289.5 Z"/></g>
<g><path style="opacity:0.408" fill="#9f9e9e" d="M 308.5,294.5 C 308.5,294.167 308.5,293.833 308.5,293.5C 310.565,293.517 312.565,293.85 314.5,294.5C 314.5,294.833 314.5,295.167 314.5,295.5C 312.435,295.483 310.435,295.15 308.5,294.5 Z"/></g>
<g><path style="opacity:0.761" fill="#a1a0a0" d="M 68.5,291.5 C 71.4054,298.216 73.7387,305.216 75.5,312.5C 72.0085,306.365 69.6752,299.698 68.5,292.5C 68.5,292.167 68.5,291.833 68.5,291.5 Z"/></g>
<g><path style="opacity:0.149" fill="#c7c6c6" d="M 244.5,293.5 C 243.617,296.704 241.95,299.371 239.5,301.5C 240.383,298.296 242.05,295.629 244.5,293.5 Z"/></g>
<g><path style="opacity:0.737" fill="#5b5a5a" d="M 314.5,295.5 C 314.5,295.167 314.5,294.833 314.5,294.5C 317.152,294.41 319.485,295.076 321.5,296.5C 319.435,296.483 317.435,296.15 315.5,295.5C 315.167,295.5 314.833,295.5 314.5,295.5 Z"/></g>
<g><path style="opacity:0.506" fill="#b0afaf" d="M 341.5,294.5 C 343.5,295.833 345.167,297.5 346.5,299.5C 343.833,298.833 342.167,297.167 341.5,294.5 Z"/></g>
<g><path style="opacity:0.022" fill="#d8d7d8" d="M 315.5,295.5 C 317.435,296.15 319.435,296.483 321.5,296.5C 321.5,296.833 321.5,297.167 321.5,297.5C 318.99,297.946 316.99,297.28 315.5,295.5 Z"/></g>
<g><path style="opacity:0.439" fill="#bababa" d="M 328.5,298.5 C 330.415,298.216 332.081,298.549 333.5,299.5C 333.44,300.043 333.107,300.376 332.5,300.5C 330.974,300.006 329.641,299.339 328.5,298.5 Z"/></g>
<g><path style="opacity:0.739" fill="#787677" d="M 15.5,289.5 C 16.1174,289.611 16.6174,289.944 17,290.5C 17.4997,298.159 17.6664,305.826 17.5,313.5C 17.1667,313.5 16.8333,313.5 16.5,313.5C 15.5632,305.555 15.2299,297.555 15.5,289.5 Z"/></g>
<g><path style="opacity:0.196" fill="#cac9c9" d="M 197.5,290.5 C 197.802,293.373 198.469,296.039 199.5,298.5C 199.5,300.833 199.5,303.167 199.5,305.5C 198.395,301.327 197.395,296.993 196.5,292.5C 196.543,291.584 196.876,290.917 197.5,290.5 Z"/></g>
<g><path style="opacity:0.02" fill="#c9c9c8" d="M 239.5,301.5 C 239.573,303.027 238.906,304.027 237.5,304.5C 237.427,302.973 238.094,301.973 239.5,301.5 Z"/></g>
<g><path style="opacity:0.157" fill="#c5c5c5" d="M 346.5,299.5 C 355.7,301.37 365.033,302.703 374.5,303.5C 386.006,303.427 397.673,303.427 409.5,303.5C 392.658,304.698 375.658,304.698 358.5,303.5C 357.207,302.842 355.707,302.508 354,302.5C 352.014,302.569 350.514,303.235 349.5,304.5C 345.758,303.163 342.091,301.829 338.5,300.5C 340.734,300.38 342.901,300.713 345,301.5C 346.03,301.164 346.53,300.497 346.5,299.5 Z"/></g>
<g><path style="opacity:0.937" fill="#959494" d="M 427.5,299.5 C 427.5,300.833 427.5,302.167 427.5,303.5C 421.5,303.5 415.5,303.5 409.5,303.5C 413.647,302.675 417.981,302.175 422.5,302C 424.503,301.665 426.17,300.832 427.5,299.5 Z"/></g>
<g><path style="opacity:0.29" fill="#b6b6b5" d="M 491.5,301.5 C 490.736,304.018 489.736,306.351 488.5,308.5C 488.166,305.509 489.166,303.176 491.5,301.5 Z"/></g>
<g><path style="opacity:0.169" fill="#b6b6b6" d="M 237.5,304.5 C 237.25,306.674 236.25,308.341 234.5,309.5C 234.273,307.067 235.273,305.401 237.5,304.5 Z"/></g>
<g><path style="opacity:1" fill="#3c3a3a" d="M 358.5,303.5 C 355.813,303.336 353.146,303.503 350.5,304C 354.464,306.119 357.13,309.285 358.5,313.5C 357.833,313.167 357.167,312.833 356.5,312.5C 355.5,312.167 354.833,311.5 354.5,310.5C 354.262,308.596 353.262,307.262 351.5,306.5C 350.5,306.167 349.833,305.5 349.5,304.5C 350.514,303.235 352.014,302.569 354,302.5C 355.707,302.508 357.207,302.842 358.5,303.5 Z"/></g>
<g><path style="opacity:0.047" fill="#b2b1b2" d="M 351.5,306.5 C 353.262,307.262 354.262,308.596 354.5,310.5C 352.738,309.738 351.738,308.404 351.5,306.5 Z"/></g>
<g><path style="opacity:0.063" fill="#bcbcbb" d="M 199.5,305.5 C 200.903,308.909 201.57,312.575 201.5,316.5C 199.918,313.124 199.251,309.458 199.5,305.5 Z"/></g>
<g><path style="opacity:0.196" fill="#bebebe" d="M 488.5,308.5 C 488.34,310.153 487.674,311.486 486.5,312.5C 486.229,310.62 486.896,309.287 488.5,308.5 Z"/></g>
<g><path style="opacity:0.004" fill="#b6b6b5" d="M 356.5,312.5 C 357.167,312.833 357.833,313.167 358.5,313.5C 360.252,315.246 361.585,317.246 362.5,319.5C 359.757,317.761 357.757,315.427 356.5,312.5 Z"/></g>
<g><path style="opacity:0.086" fill="#cccbcc" d="M 75.5,313.5 C 77.1042,314.287 77.7709,315.62 77.5,317.5C 76.3263,316.486 75.6596,315.153 75.5,313.5 Z"/></g>
<g><path style="opacity:0.208" fill="#b6b5b5" d="M 486.5,312.5 C 484.841,317.827 482.174,322.493 478.5,326.5C 480.664,321.5 483.331,316.833 486.5,312.5 Z"/></g>
<g><path style="opacity:0.604" fill="#959494" d="M 362.5,319.5 C 365.144,320.144 366.811,321.811 367.5,324.5C 365.548,323.215 363.882,321.549 362.5,319.5 Z"/></g>
<g><path style="opacity:0.133" fill="#b4b4b3" d="M 16.5,313.5 C 16.8333,313.5 17.1667,313.5 17.5,313.5C 17.9801,318.822 18.3135,324.155 18.5,329.5C 16.8224,324.432 16.1557,319.098 16.5,313.5 Z"/></g>
<g><path style="opacity:0.447" fill="#b2b1b2" d="M 47.5,320.5 C 49.7488,321.08 51.4154,322.413 52.5,324.5C 50.2512,323.92 48.5846,322.587 47.5,320.5 Z"/></g>
<g><path style="opacity:0.125" fill="#b8b7b7" d="M 234.5,309.5 C 229.333,319.174 223.666,328.508 217.5,337.5C 222.165,327.493 227.832,318.159 234.5,309.5 Z"/></g>
<g><path style="opacity:0.302" fill="#b7b7b6" d="M 52.5,324.5 C 54.0269,324.427 55.0269,325.094 55.5,326.5C 53.9731,326.573 52.9731,325.906 52.5,324.5 Z"/></g>
<g><path style="opacity:0.047" fill="#c2c2c2" d="M 367.5,324.5 C 372.167,328.5 376.5,332.833 380.5,337.5C 375.167,334.167 370.833,329.833 367.5,324.5 Z"/></g>
<g><path style="opacity:0.216" fill="#b2b1b1" d="M 47.5,320.5 C 46.5041,320.414 45.6708,320.748 45,321.5C 37.8043,334.548 32.3043,348.214 28.5,362.5C 27.5224,362.023 26.6891,361.357 26,360.5C 25.2612,357.454 24.4279,354.454 23.5,351.5C 24.4972,351.47 25.1639,351.97 25.5,353C 26.3333,355.5 27.1667,358 28,360.5C 31.4365,346.028 36.9365,332.362 44.5,319.5C 45.8595,318.335 46.8595,318.668 47.5,320.5 Z"/></g>
<g><path style="opacity:0.392" fill="#adacac" d="M 55.5,326.5 C 57.4044,326.738 58.7377,327.738 59.5,329.5C 57.5956,329.262 56.2623,328.262 55.5,326.5 Z"/></g>
<g><path style="opacity:0.012" fill="#cccccc" d="M 59.5,329.5 C 61.2303,330.026 62.5637,331.026 63.5,332.5C 61.368,332.446 60.0347,331.446 59.5,329.5 Z"/></g>
<g><path style="opacity:0.141" fill="#bab9b9" d="M 78.5,320.5 C 81.0178,324.877 83.0178,329.544 84.5,334.5C 81.4316,330.356 79.4316,325.689 78.5,320.5 Z"/></g>
<g><path style="opacity:0.082" fill="#bdbdbd" d="M 478.5,326.5 C 477.849,329.803 476.182,332.47 473.5,334.5C 474.669,331.489 476.336,328.822 478.5,326.5 Z"/></g>
<g><path style="opacity:0.337" fill="#b5b4b4" d="M 65.5,333.5 C 67.4044,333.738 68.7377,334.738 69.5,336.5C 67.5956,336.262 66.2623,335.262 65.5,333.5 Z"/></g>
<g><path style="opacity:0.192" fill="#bab9b9" d="M 201.5,316.5 C 204.036,327.019 206.369,337.685 208.5,348.5C 204.655,338.284 202.321,327.617 201.5,316.5 Z"/></g>
<g><path style="opacity:0.102" fill="#cac9c8" d="M 473.5,334.5 C 473.573,336.027 472.906,337.027 471.5,337.5C 471.427,335.973 472.094,334.973 473.5,334.5 Z"/></g>
<g><path style="opacity:0.796" fill="#8a8989" d="M 84.5,334.5 C 86.6744,337.515 88.3411,340.849 89.5,344.5C 86.2586,342.017 84.5919,338.684 84.5,334.5 Z"/></g>
<g><path style="opacity:0.659" fill="#9e9d9d" d="M 380.5,337.5 C 384.436,339.766 387.769,342.766 390.5,346.5C 386.564,344.234 383.231,341.234 380.5,337.5 Z"/></g>
<g><path style="opacity:0.286" fill="#a6a5a4" d="M 71.5,337.5 C 73.0269,337.427 74.0269,338.094 74.5,339.5C 72.9731,339.573 71.9731,338.906 71.5,337.5 Z"/></g>
<g><path style="opacity:0.349" fill="#a4a4a4" d="M 18.5,329.5 C 20.5785,334.873 21.9119,340.539 22.5,346.5C 19.7895,341.287 18.4562,335.62 18.5,329.5 Z"/></g>
<g><path style="opacity:0.157" fill="#b5b5b4" d="M 74.5,339.5 C 76.0269,339.427 77.0269,340.094 77.5,341.5C 75.9731,341.573 74.9731,340.906 74.5,339.5 Z"/></g>
<g><path style="opacity:0.325" fill="#aaa9a9" d="M 470.5,338.5 C 469.39,341.889 468.39,345.222 467.5,348.5C 467.336,345.813 467.503,343.146 468,340.5C 468.708,339.619 469.542,338.953 470.5,338.5 Z"/></g>
<g><path style="opacity:0.337" fill="#969596" d="M 81.5,343.5 C 83.0269,343.427 84.0269,344.094 84.5,345.5C 82.9731,345.573 81.9731,344.906 81.5,343.5 Z"/></g>
<g><path style="opacity:0.541" fill="#9c9c9b" d="M 390.5,346.5 C 392.404,346.738 393.738,347.738 394.5,349.5C 392.596,349.262 391.262,348.262 390.5,346.5 Z"/></g>
<g><path style="opacity:0.178" fill="#b8b8b8" d="M 217.5,337.5 C 213.646,344.2 210.646,351.2 208.5,358.5C 208.662,356.473 208.495,354.473 208,352.5C 201.585,358.755 194.752,364.422 187.5,369.5C 194.276,362.609 201.276,355.943 208.5,349.5C 211.479,345.568 214.479,341.568 217.5,337.5 Z"/></g>
<g><path style="opacity:0.325" fill="#b1b1b1" d="M 89.5,344.5 C 90.9308,347.039 92.5975,349.372 94.5,351.5C 92.7973,350.34 92.1307,351.007 92.5,353.5C 91.1798,351.537 89.8465,349.537 88.5,347.5C 89.404,346.791 89.7373,345.791 89.5,344.5 Z"/></g>
<g><path style="opacity:0.008" fill="#bcbcbc" d="M 94.5,351.5 C 97.0892,352.419 99.0892,354.086 100.5,356.5C 97.9108,355.581 95.9108,353.914 94.5,351.5 Z"/></g>
<g><path style="opacity:0.263" fill="#a6a5a5" d="M 394.5,349.5 C 396.017,349.511 397.184,350.177 398,351.5C 398.877,353.674 398.377,355.341 396.5,356.5C 396.539,355.417 396.873,354.417 397.5,353.5C 396.476,352.148 395.476,350.815 394.5,349.5 Z"/></g>
<g><path style="opacity:0.314" fill="#a09f9f" d="M 92.5,353.5 C 95.7366,359.864 98.4033,366.53 100.5,373.5C 96.872,367.296 94.2053,360.629 92.5,353.5 Z"/></g>
<g><path style="opacity:1" fill="#22211f" d="M 94.5,351.5 C 95.9108,353.914 97.9108,355.581 100.5,356.5C 102.193,359.19 104.527,361.19 107.5,362.5C 109.173,365.167 111.507,367.167 114.5,368.5C 115.262,370.262 116.596,371.262 118.5,371.5C 120.949,374.556 123.949,376.889 127.5,378.5C 128.262,380.262 129.596,381.262 131.5,381.5C 132.262,383.262 133.596,384.262 135.5,384.5C 136.262,386.262 137.596,387.262 139.5,387.5C 142.589,390.917 146.256,393.584 150.5,395.5C 155.361,393.575 159.695,390.909 163.5,387.5C 165.027,387.573 166.027,386.906 166.5,385.5C 169.533,383.984 172.2,381.984 174.5,379.5C 176.027,379.573 177.027,378.906 177.5,377.5C 179.749,376.92 181.415,375.587 182.5,373.5C 184.749,372.92 186.415,371.587 187.5,369.5C 194.752,364.422 201.585,358.755 208,352.5C 208.495,354.473 208.662,356.473 208.5,358.5C 204.32,373.419 201.987,388.752 201.5,404.5C 199.896,408.9 199.229,413.566 199.5,418.5C 197.913,425.512 200.579,429.512 207.5,430.5C 208.492,430.328 209.158,430.662 209.5,431.5C 212.678,434.258 216.345,436.258 220.5,437.5C 229.976,443.238 239.976,447.904 250.5,451.5C 250.611,452.117 250.944,452.617 251.5,453C 238.905,454.672 226.238,455.506 213.5,455.5C 208.5,455.5 203.5,455.5 198.5,455.5C 198.205,457.735 198.539,459.735 199.5,461.5C 199.776,467.425 200.776,473.092 202.5,478.5C 202.996,482.652 203.996,486.652 205.5,490.5C 203.019,491.258 200.352,491.258 197.5,490.5C 196.209,490.737 195.209,490.404 194.5,489.5C 192.967,487.755 190.967,486.755 188.5,486.5C 187.486,485.326 186.153,484.66 184.5,484.5C 183.508,484.672 182.842,484.338 182.5,483.5C 182.027,482.094 181.027,481.427 179.5,481.5C 179.027,480.094 178.027,479.427 176.5,479.5C 175.508,479.672 174.842,479.338 174.5,478.5C 172.761,475.757 170.427,473.757 167.5,472.5C 164.105,468.102 160.105,464.436 155.5,461.5C 155.144,459.81 154.144,458.81 152.5,458.5C 151.92,456.251 150.587,454.585 148.5,453.5C 147.713,451.896 146.38,451.229 144.5,451.5C 142.379,451.675 140.379,451.341 138.5,450.5C 129.049,447.385 119.382,444.718 109.5,442.5C 107.815,440.182 105.481,439.182 102.5,439.5C 99.7594,439.293 97.4261,438.293 95.5,436.5C 94.4863,435.326 93.153,434.66 91.5,434.5C 90.5084,434.672 89.8417,434.338 89.5,433.5C 88.3126,431.025 86.3126,430.025 83.5,430.5C 83.0269,429.094 82.0269,428.427 80.5,428.5C 80.1667,427.5 79.5,426.833 78.5,426.5C 78.0269,425.094 77.0269,424.427 75.5,424.5C 74.4154,422.413 72.7488,421.08 70.5,420.5C 70.1667,419.5 69.5,418.833 68.5,418.5C 76.6159,418.551 84.9493,418.385 93.5,418C 97.0382,417.465 100.372,416.632 103.5,415.5C 107.647,415.874 111.314,414.874 114.5,412.5C 117.634,412.293 118.634,410.96 117.5,408.5C 117.25,406.326 116.25,404.659 114.5,403.5C 113.662,403.158 113.328,402.492 113.5,401.5C 109.677,391.858 105.343,382.524 100.5,373.5C 98.4033,366.53 95.7366,359.864 92.5,353.5C 92.1307,351.007 92.7973,350.34 94.5,351.5 Z"/></g>
<g><path style="opacity:0.063" fill="#b5b4b4" d="M 100.5,356.5 C 103.447,357.781 105.781,359.781 107.5,362.5C 104.527,361.19 102.193,359.19 100.5,356.5 Z"/></g>
<g><path style="opacity:0.329" fill="#a5a4a4" d="M 467.5,348.5 C 466.279,364.716 461.946,380.05 454.5,394.5C 453.386,395.776 452.386,395.776 451.5,394.5C 452.376,394.631 453.043,394.298 453.5,393.5C 460.198,379.016 464.865,364.016 467.5,348.5 Z"/></g>
<g><path style="opacity:0.2" fill="#b0afaf" d="M 396.5,356.5 C 394.65,361.347 391.983,365.68 388.5,369.5C 390.431,364.624 393.097,360.29 396.5,356.5 Z"/></g>
<g><path style="opacity:0.078" fill="#b8b8b8" d="M 107.5,362.5 C 110.493,363.833 112.827,365.833 114.5,368.5C 111.507,367.167 109.173,365.167 107.5,362.5 Z"/></g>
<g><path style="opacity:0.027" fill="#c6c5c6" d="M 114.5,368.5 C 116.404,368.738 117.738,369.738 118.5,371.5C 116.596,371.262 115.262,370.262 114.5,368.5 Z"/></g>
<g><path style="opacity:0.188" fill="#cdcdcc" d="M 388.5,369.5 C 388.573,371.027 387.906,372.027 386.5,372.5C 386.427,370.973 387.094,369.973 388.5,369.5 Z"/></g>
<g><path style="opacity:0.565" fill="#a9a7a8" d="M 187.5,369.5 C 186.415,371.587 184.749,372.92 182.5,373.5C 183.585,371.413 185.251,370.08 187.5,369.5 Z"/></g>
<g><path style="opacity:0.216" fill="#c4c3c3" d="M 118.5,371.5 C 122.051,373.111 125.051,375.444 127.5,378.5C 123.949,376.889 120.949,374.556 118.5,371.5 Z"/></g>
<g><path style="opacity:0.651" fill="#999998" d="M 182.5,373.5 C 181.415,375.587 179.749,376.92 177.5,377.5C 178.585,375.413 180.251,374.08 182.5,373.5 Z"/></g>
<g><path style="opacity:0.294" fill="#b4b4b4" d="M 385.5,374.5 C 385.573,376.027 384.906,377.027 383.5,377.5C 383.427,375.973 384.094,374.973 385.5,374.5 Z"/></g>
<g><path style="opacity:0.318" fill="#bfbfbf" d="M 435.5,377.5 C 433.833,376.167 432.167,376.167 430.5,377.5C 432.167,374.833 433.833,374.833 435.5,377.5 Z"/></g>
<g><path style="opacity:0.024" fill="#c2c1c1" d="M 127.5,378.5 C 129.404,378.738 130.738,379.738 131.5,381.5C 129.596,381.262 128.262,380.262 127.5,378.5 Z"/></g>
<g><path style="opacity:0.522" fill="#a5a4a5" d="M 177.5,377.5 C 177.027,378.906 176.027,379.573 174.5,379.5C 174.973,378.094 175.973,377.427 177.5,377.5 Z"/></g>
<g><path style="opacity:0.039" fill="#d5d5d4" d="M 430.5,377.5 C 430.027,378.906 429.027,379.573 427.5,379.5C 427.973,378.094 428.973,377.427 430.5,377.5 Z"/></g>
<g><path style="opacity:0.298" fill="#bab9b9" d="M 383.5,377.5 C 383.573,379.027 382.906,380.027 381.5,380.5C 381.427,378.973 382.094,377.973 383.5,377.5 Z"/></g>
<g><path style="opacity:0.392" fill="#a8a8a8" d="M 174.5,379.5 C 172.2,381.984 169.533,383.984 166.5,385.5C 168.443,382.529 171.109,380.529 174.5,379.5 Z"/></g>
<g><path style="opacity:0.067" fill="#c8c8c8" d="M 435.5,377.5 C 438.784,379.117 441.451,381.45 443.5,384.5C 441.068,383.25 438.734,381.75 436.5,380C 435.748,379.329 435.414,378.496 435.5,377.5 Z"/></g>
<g><path style="opacity:0.016" fill="#c0c0c0" d="M 131.5,381.5 C 133.404,381.738 134.738,382.738 135.5,384.5C 133.596,384.262 132.262,383.262 131.5,381.5 Z"/></g>
<g><path style="opacity:0.29" fill="#bdbcbc" d="M 381.5,380.5 C 379.237,385.365 376.237,389.698 372.5,393.5C 374.763,388.635 377.763,384.302 381.5,380.5 Z"/></g>
<g><path style="opacity:0.075" fill="#bebebe" d="M 135.5,384.5 C 137.404,384.738 138.738,385.738 139.5,387.5C 137.596,387.262 136.262,386.262 135.5,384.5 Z"/></g>
<g><path style="opacity:0.655" fill="#8c898b" d="M 166.5,385.5 C 166.027,386.906 165.027,387.573 163.5,387.5C 163.973,386.094 164.973,385.427 166.5,385.5 Z"/></g>
<g><path style="opacity:0.039" fill="#b2b1b1" d="M 443.5,384.5 C 445.86,385.865 447.527,387.865 448.5,390.5C 446.11,389.109 444.443,387.109 443.5,384.5 Z"/></g>
<g><path style="opacity:0.298" fill="#aaa9a9" d="M 100.5,373.5 C 105.343,382.524 109.677,391.858 113.5,401.5C 108.137,392.767 103.804,383.433 100.5,373.5 Z"/></g>
<g><path style="opacity:0.196" fill="#b8b7b7" d="M 427.5,379.5 C 421.093,385.04 413.759,389.04 405.5,391.5C 412.826,387.504 420.159,383.504 427.5,379.5 Z"/></g>
<g><path style="opacity:0.184" fill="#b6b5b5" d="M 139.5,387.5 C 143.43,389.581 147.264,391.914 151,394.5C 154.845,391.465 159.012,389.132 163.5,387.5C 159.695,390.909 155.361,393.575 150.5,395.5C 146.256,393.584 142.589,390.917 139.5,387.5 Z"/></g>
<g><path style="opacity:0.175" fill="#afaeae" d="M 208.5,358.5 C 206.522,374.024 204.188,389.357 201.5,404.5C 201.987,388.752 204.32,373.419 208.5,358.5 Z"/></g>
<g><path style="opacity:0.027" fill="#c7c7c7" d="M 448.5,390.5 C 450.262,391.262 451.262,392.596 451.5,394.5C 449.738,393.738 448.738,392.404 448.5,390.5 Z"/></g>
<g><path style="opacity:0.2" fill="#c9c8c8" d="M 372.5,393.5 C 371.189,396.135 369.522,398.469 367.5,400.5C 368.028,397.312 369.695,394.979 372.5,393.5 Z"/></g>
<g><path style="opacity:0.208" fill="#c0bfc0" d="M 114.5,403.5 C 116.25,404.659 117.25,406.326 117.5,408.5C 115.75,407.341 114.75,405.674 114.5,403.5 Z"/></g>
<g><path style="opacity:0.039" fill="#d3d2d2" d="M 117.5,408.5 C 118.634,410.96 117.634,412.293 114.5,412.5C 114.167,412.5 113.833,412.5 113.5,412.5C 115.041,411.333 116.375,410 117.5,408.5 Z"/></g>
<g><path style="opacity:1" fill="#232220" d="M 364.5,446.5 C 363.566,447.568 363.232,448.901 363.5,450.5C 376.301,448.974 388.301,445.307 399.5,439.5C 400.791,439.737 401.791,439.404 402.5,438.5C 405.285,437.916 406.952,438.916 407.5,441.5C 406.5,442.833 405.5,444.167 404.5,445.5C 401.63,446.433 399.296,448.1 397.5,450.5C 395.147,451.34 393.147,452.674 391.5,454.5C 389.973,454.427 388.973,455.094 388.5,456.5C 386.973,456.427 385.973,457.094 385.5,458.5C 383.326,458.75 381.659,459.75 380.5,461.5C 378.326,461.75 376.659,462.75 375.5,464.5C 368.685,467.073 362.351,470.406 356.5,474.5C 352.835,474.502 349.835,475.835 347.5,478.5C 346.791,479.404 345.791,479.737 344.5,479.5C 342.302,479.12 340.635,479.787 339.5,481.5C 337.447,481.402 335.78,482.069 334.5,483.5C 330.383,485.204 326.049,486.537 321.5,487.5C 315.906,488.232 310.573,489.565 305.5,491.5C 304.432,492.434 303.099,492.768 301.5,492.5C 291.964,493.356 282.63,494.69 273.5,496.5C 266.825,496.666 260.158,496.5 253.5,496C 254.416,495.722 255.082,495.222 255.5,494.5C 259.258,494.605 262.592,493.605 265.5,491.5C 266.93,490.463 268.597,489.796 270.5,489.5C 272.898,489.741 274.898,489.074 276.5,487.5C 277.5,487.167 278.167,486.5 278.5,485.5C 282.134,484.268 285.634,482.601 289,480.5C 288.967,478.522 287.8,477.522 285.5,477.5C 283.967,475.755 281.967,474.755 279.5,474.5C 279.027,473.094 278.027,472.427 276.5,472.5C 275.738,470.738 274.404,469.738 272.5,469.5C 272.027,468.094 271.027,467.427 269.5,467.5C 267.441,465.103 265.108,463.103 262.5,461.5C 261.738,459.738 260.404,458.738 258.5,458.5C 257.972,457.279 257.305,456.113 256.5,455C 259.146,454.503 261.813,454.336 264.5,454.5C 269.916,456.117 275.583,456.784 281.5,456.5C 294.5,457.833 307.5,457.833 320.5,456.5C 324.833,452.833 328.833,448.833 332.5,444.5C 338.107,439.925 342.774,434.591 346.5,428.5C 351.976,423.692 356.31,418.026 359.5,411.5C 360.932,409.673 362.599,408.006 364.5,406.5C 365.667,419.835 365.667,433.168 364.5,446.5 Z"/></g>
<g><path style="opacity:0.694" fill="#969494" d="M 113.5,412.5 C 113.833,412.5 114.167,412.5 114.5,412.5C 111.314,414.874 107.647,415.874 103.5,415.5C 106.484,414.663 109.318,413.329 112,411.5C 112.383,412.056 112.883,412.389 113.5,412.5 Z"/></g>
<g><path style="opacity:0.38" fill="#9a9899" d="M 201.5,404.5 C 201.819,409.363 201.486,414.03 200.5,418.5C 200.167,418.5 199.833,418.5 199.5,418.5C 199.229,413.566 199.896,408.9 201.5,404.5 Z"/></g>
<g><path style="opacity:0.263" fill="#b6b4b5" d="M 103.5,415.5 C 100.372,416.632 97.0382,417.465 93.5,418C 84.9493,418.385 76.6159,418.551 68.5,418.5C 66.0268,418.053 65.8601,417.053 68,415.5C 72.8573,416.907 77.8573,417.573 83,417.5C 89.8667,417.105 96.7001,416.438 103.5,415.5 Z"/></g>
<g><path style="opacity:0.282" fill="#ababaa" d="M 359.5,411.5 C 356.31,418.026 351.976,423.692 346.5,428.5C 347.072,426.745 347.906,425.078 349,423.5C 352.365,419.307 355.865,415.307 359.5,411.5 Z"/></g>
<g><path style="opacity:0.027" fill="#bdbdbd" d="M 68.5,418.5 C 69.5,418.833 70.1667,419.5 70.5,420.5C 69.1667,420.5 68.5,419.833 68.5,418.5 Z"/></g>
<g><path style="opacity:0.647" fill="#8d8c8c" d="M 70.5,420.5 C 72.7488,421.08 74.4154,422.413 75.5,424.5C 73.2512,423.92 71.5846,422.587 70.5,420.5 Z"/></g>
<g><path style="opacity:0.424" fill="#949494" d="M 75.5,424.5 C 77.0269,424.427 78.0269,425.094 78.5,426.5C 76.9731,426.573 75.9731,425.906 75.5,424.5 Z"/></g>
<g><path style="opacity:0.004" fill="#cccccc" d="M 78.5,426.5 C 79.5,426.833 80.1667,427.5 80.5,428.5C 79.1667,428.5 78.5,427.833 78.5,426.5 Z"/></g>
<g><path style="opacity:0.29" fill="#bab9ba" d="M 199.5,418.5 C 199.833,418.5 200.167,418.5 200.5,418.5C 200.187,421.247 200.52,423.914 201.5,426.5C 203.911,427.361 205.911,428.694 207.5,430.5C 200.579,429.512 197.913,425.512 199.5,418.5 Z"/></g>
<g><path style="opacity:0.129" fill="#c8c8c7" d="M 80.5,428.5 C 82.0269,428.427 83.0269,429.094 83.5,430.5C 81.9731,430.573 80.9731,429.906 80.5,428.5 Z"/></g>
<g><path style="opacity:0.427" fill="#a5a5a5" d="M 417.5,434.5 C 418.29,433.206 419.29,432.039 420.5,431C 419.906,430.536 419.239,430.369 418.5,430.5C 419.703,428.366 421.537,427.032 424,426.5C 424.5,427 425,427.5 425.5,428C 423.229,430.782 420.563,432.949 417.5,434.5 Z"/></g>
<g><path style="opacity:0.29" fill="#b1b0b0" d="M 405.5,391.5 C 401.49,394.127 397.156,396.294 392.5,398C 383.792,400.458 375.292,403.292 367,406.5C 366.373,412.185 366.54,417.851 367.5,423.5C 367.16,431.408 366.16,439.075 364.5,446.5C 365.667,433.168 365.667,419.835 364.5,406.5C 362.599,408.006 360.932,409.673 359.5,411.5C 359.709,410.078 360.209,408.745 361,407.5C 362.719,404.712 364.885,402.379 367.5,400.5C 367.489,402.017 366.823,403.184 365.5,404C 379.121,400.961 392.454,396.794 405.5,391.5 Z"/></g>
<g><path style="opacity:0.569" fill="#949393" d="M 83.5,430.5 C 86.3126,430.025 88.3126,431.025 89.5,433.5C 87.4561,432.492 85.4561,431.492 83.5,430.5 Z"/></g>
<g><path style="opacity:0.573" fill="#989797" d="M 346.5,428.5 C 342.774,434.591 338.107,439.925 332.5,444.5C 332.5,444.167 332.5,443.833 332.5,443.5C 336.944,438.268 341.61,433.268 346.5,428.5 Z"/></g>
<g><path style="opacity:0.251" fill="#b2b2b1" d="M 209.5,431.5 C 213.655,432.742 217.322,434.742 220.5,437.5C 216.345,436.258 212.678,434.258 209.5,431.5 Z"/></g>
<g><path style="opacity:0.094" fill="#d3d2d2" d="M 412.5,433.5 C 410.819,435.008 408.819,436.008 406.5,436.5C 407.911,434.461 409.911,433.461 412.5,433.5 Z"/></g>
<g><path style="opacity:0.082" fill="#cbcaca" d="M 91.5,434.5 C 93.153,434.66 94.4863,435.326 95.5,436.5C 93.6203,436.771 92.287,436.104 91.5,434.5 Z"/></g>
<g><path style="opacity:1" fill="#434241" d="M 418.5,430.5 C 419.239,430.369 419.906,430.536 420.5,431C 419.29,432.039 418.29,433.206 417.5,434.5C 417.5,435.167 417.167,435.5 416.5,435.5C 413.553,436.781 411.219,438.781 409.5,441.5C 408.833,441.5 408.167,441.5 407.5,441.5C 406.952,438.916 405.285,437.916 402.5,438.5C 403.514,437.326 404.847,436.66 406.5,436.5C 408.819,436.008 410.819,435.008 412.5,433.5C 414.181,431.992 416.181,430.992 418.5,430.5 Z"/></g>
<g><path style="opacity:0.118" fill="#bfbfbe" d="M 416.5,435.5 C 414.807,438.19 412.473,440.19 409.5,441.5C 411.219,438.781 413.553,436.781 416.5,435.5 Z"/></g>
<g><path style="opacity:0.204" fill="#c4c4c4" d="M 402.5,438.5 C 401.791,439.404 400.791,439.737 399.5,439.5C 400.105,437.519 401.105,437.185 402.5,438.5 Z"/></g>
<g><path style="opacity:0.09" fill="#aaaaa9" d="M 102.5,439.5 C 105.481,439.182 107.815,440.182 109.5,442.5C 106.759,442.293 104.426,441.293 102.5,439.5 Z"/></g>
<g><path style="opacity:0.678" fill="#abaaaa" d="M 109.5,442.5 C 119.382,444.718 129.049,447.385 138.5,450.5C 128.43,448.902 118.763,446.235 109.5,442.5 Z"/></g>
<g><path style="opacity:0.035" fill="#cdcdcd" d="M 407.5,441.5 C 408.167,441.5 408.833,441.5 409.5,441.5C 408.415,443.587 406.749,444.92 404.5,445.5C 405.5,444.167 406.5,442.833 407.5,441.5 Z"/></g>
<g><path style="opacity:0.286" fill="#afaeae" d="M 220.5,437.5 C 230.856,441.608 240.856,446.275 250.5,451.5C 239.976,447.904 229.976,443.238 220.5,437.5 Z"/></g>
<g><path style="opacity:0.431" fill="#b7b7b6" d="M 332.5,443.5 C 332.5,443.833 332.5,444.167 332.5,444.5C 328.833,448.833 324.833,452.833 320.5,456.5C 316.167,456.5 311.833,456.5 307.5,456.5C 311.647,455.675 315.981,455.175 320.5,455C 324.369,450.963 328.369,447.13 332.5,443.5 Z"/></g>
<g><path style="opacity:0.545" fill="#afafaf" d="M 399.5,439.5 C 388.301,445.307 376.301,448.974 363.5,450.5C 363.232,448.901 363.566,447.568 364.5,446.5C 364.5,447.5 364.5,448.5 364.5,449.5C 376.51,447.249 388.176,443.915 399.5,439.5 Z"/></g>
<g><path style="opacity:0.063" fill="#c4c4c4" d="M 404.5,445.5 C 402.704,447.9 400.37,449.567 397.5,450.5C 399.296,448.1 401.63,446.433 404.5,445.5 Z"/></g>
<g><path style="opacity:0.169" fill="#c3c3c3" d="M 144.5,451.5 C 146.38,451.229 147.713,451.896 148.5,453.5C 146.847,453.34 145.514,452.674 144.5,451.5 Z"/></g>
<g><path style="opacity:0.106" fill="#c5c5c5" d="M 397.5,450.5 C 396.292,453.044 394.292,454.378 391.5,454.5C 393.147,452.674 395.147,451.34 397.5,450.5 Z"/></g>
<g><path style="opacity:0.027" fill="#b7b6b6" d="M 148.5,453.5 C 150.587,454.585 151.92,456.251 152.5,458.5C 150.413,457.415 149.08,455.749 148.5,453.5 Z"/></g>
<g><path style="opacity:0.11" fill="#b2b1b1" d="M 250.5,451.5 C 255.285,452.509 259.952,453.509 264.5,454.5C 261.813,454.336 259.146,454.503 256.5,455C 257.305,456.113 257.972,457.279 258.5,458.5C 256.866,457.793 255.532,456.627 254.5,455C 243.925,455.172 233.425,456.006 223,457.5C 219.943,456.549 216.777,456.216 213.5,456.5C 213.5,456.167 213.5,455.833 213.5,455.5C 226.238,455.506 238.905,454.672 251.5,453C 250.944,452.617 250.611,452.117 250.5,451.5 Z"/></g>
<g><path style="opacity:0.44" fill="#9a9999" d="M 213.5,455.5 C 213.5,455.833 213.5,456.167 213.5,456.5C 209.322,457.571 204.989,457.571 200.5,456.5C 199.549,457.919 199.216,459.585 199.5,461.5C 198.539,459.735 198.205,457.735 198.5,455.5C 203.5,455.5 208.5,455.5 213.5,455.5 Z"/></g>
<g><path style="opacity:0.669" fill="#908f8e" d="M 264.5,454.5 C 270.358,454.178 276.025,454.511 281.5,455.5C 281.5,455.833 281.5,456.167 281.5,456.5C 275.583,456.784 269.916,456.117 264.5,454.5 Z"/></g>
<g><path style="opacity:0.155" fill="#d1d0d0" d="M 299.5,456.5 C 293.5,456.5 287.5,456.5 281.5,456.5C 281.5,456.167 281.5,455.833 281.5,455.5C 284.777,455.784 287.943,455.451 291,454.5C 293.939,455.128 296.772,455.795 299.5,456.5 Z"/></g>
<g><path style="opacity:0.078" fill="#c1c0c0" d="M 391.5,454.5 C 391.027,455.906 390.027,456.573 388.5,456.5C 388.973,455.094 389.973,454.427 391.5,454.5 Z"/></g>
<g><path style="opacity:0.59" fill="#666666" d="M 307.5,456.5 C 311.833,456.5 316.167,456.5 320.5,456.5C 307.5,457.833 294.5,457.833 281.5,456.5C 287.5,456.5 293.5,456.5 299.5,456.5C 302.309,456.043 304.976,456.043 307.5,456.5 Z"/></g>
<g><path style="opacity:0.059" fill="#c7c5c6" d="M 388.5,456.5 C 388.027,457.906 387.027,458.573 385.5,458.5C 385.973,457.094 386.973,456.427 388.5,456.5 Z"/></g>
<g><path style="opacity:0.478" fill="#a7a6a6" d="M 258.5,458.5 C 260.404,458.738 261.738,459.738 262.5,461.5C 260.596,461.262 259.262,460.262 258.5,458.5 Z"/></g>
<g><path style="opacity:0.043" fill="#b8b7b7" d="M 152.5,458.5 C 154.144,458.81 155.144,459.81 155.5,461.5C 153.856,461.19 152.856,460.19 152.5,458.5 Z"/></g>
<g><path style="opacity:0.008" fill="#c8c8c7" d="M 385.5,458.5 C 384.656,460.759 382.989,461.759 380.5,461.5C 381.659,459.75 383.326,458.75 385.5,458.5 Z"/></g>
<g><path style="opacity:0.702" fill="#999898" d="M 155.5,461.5 C 160.105,464.436 164.105,468.102 167.5,472.5C 162.895,469.564 158.895,465.898 155.5,461.5 Z"/></g>
<g><path style="opacity:0.247" fill="#b3b2b3" d="M 380.5,461.5 C 379.341,463.25 377.674,464.25 375.5,464.5C 376.659,462.75 378.326,461.75 380.5,461.5 Z"/></g>
<g><path style="opacity:0.004" fill="#b9b9b8" d="M 262.5,461.5 C 265.108,463.103 267.441,465.103 269.5,467.5C 266.253,466.588 263.92,464.588 262.5,461.5 Z"/></g>
<g><path style="opacity:0.231" fill="#a7a6a6" d="M 375.5,464.5 C 369.649,468.594 363.315,471.927 356.5,474.5C 362.351,470.406 368.685,467.073 375.5,464.5 Z"/></g>
<g><path style="opacity:0.143" fill="#c8c7c8" d="M 200.5,456.5 C 200.837,463.866 201.504,471.199 202.5,478.5C 200.776,473.092 199.776,467.425 199.5,461.5C 199.216,459.585 199.549,457.919 200.5,456.5 Z"/></g>
<g><path style="opacity:0.314" fill="#aeadae" d="M 269.5,467.5 C 271.027,467.427 272.027,468.094 272.5,469.5C 270.973,469.573 269.973,468.906 269.5,467.5 Z"/></g>
<g><path style="opacity:0.02" fill="#bdbdbc" d="M 272.5,469.5 C 274.404,469.738 275.738,470.738 276.5,472.5C 274.381,472.532 273.048,471.532 272.5,469.5 Z"/></g>
<g><path style="opacity:0.243" fill="#b8b7b6" d="M 276.5,472.5 C 278.027,472.427 279.027,473.094 279.5,474.5C 277.973,474.573 276.973,473.906 276.5,472.5 Z"/></g>
<g><path style="opacity:0.431" fill="#a8a7a7" d="M 356.5,474.5 C 353.645,476.093 350.645,477.426 347.5,478.5C 349.835,475.835 352.835,474.502 356.5,474.5 Z"/></g>
<g><path style="opacity:0.243" fill="#b7b6b6" d="M 167.5,472.5 C 170.427,473.757 172.761,475.757 174.5,478.5C 171.573,477.243 169.239,475.243 167.5,472.5 Z"/></g>
<g><path style="opacity:0.537" fill="#959595" d="M 279.5,474.5 C 281.967,474.755 283.967,475.755 285.5,477.5C 283.033,477.245 281.033,476.245 279.5,474.5 Z"/></g>
<g><path style="opacity:0.012" fill="#e3e4e3" d="M 285.5,480.5 C 284.833,479.167 284.833,479.167 285.5,480.5 Z"/></g>
<g><path style="opacity:0.263" fill="#bebebd" d="M 176.5,479.5 C 178.027,479.427 179.027,480.094 179.5,481.5C 177.973,481.573 176.973,480.906 176.5,479.5 Z"/></g>
<g><path style="opacity:0.18" fill="#a8a8a8" d="M 344.5,479.5 C 343.07,480.537 341.403,481.204 339.5,481.5C 340.635,479.787 342.302,479.12 344.5,479.5 Z"/></g>
<g><path style="opacity:0.161" fill="#b4b4b4" d="M 285.5,477.5 C 287.8,477.522 288.967,478.522 289,480.5C 285.634,482.601 282.134,484.268 278.5,485.5C 280.657,483.588 282.991,481.921 285.5,480.5C 286.239,480.631 286.906,480.464 287.5,480C 286.619,479.292 285.953,478.458 285.5,477.5 Z"/></g>
<g><path style="opacity:0.227" fill="#b6b6b5" d="M 179.5,481.5 C 181.027,481.427 182.027,482.094 182.5,483.5C 180.973,483.573 179.973,482.906 179.5,481.5 Z"/></g>
<g><path style="opacity:0.098" fill="#bfbebf" d="M 339.5,481.5 C 338.22,482.931 336.553,483.598 334.5,483.5C 335.78,482.069 337.447,481.402 339.5,481.5 Z"/></g>
<g><path style="opacity:0.133" fill="#b9b8b8" d="M 184.5,484.5 C 186.153,484.66 187.486,485.326 188.5,486.5C 186.62,486.771 185.287,486.104 184.5,484.5 Z"/></g>
<g><path style="opacity:0.204" fill="#c3c3c3" d="M 278.5,485.5 C 278.167,486.5 277.5,487.167 276.5,487.5C 275.833,487.5 275.167,487.5 274.5,487.5C 275.514,486.326 276.847,485.66 278.5,485.5 Z"/></g>
<g><path style="opacity:0.824" fill="#7a7a79" d="M 274.5,487.5 C 275.167,487.5 275.833,487.5 276.5,487.5C 274.898,489.074 272.898,489.741 270.5,489.5C 271.514,488.326 272.847,487.66 274.5,487.5 Z"/></g>
<g><path style="opacity:0.306" fill="#a6a6a6" d="M 188.5,486.5 C 190.967,486.755 192.967,487.755 194.5,489.5C 192.033,489.245 190.033,488.245 188.5,486.5 Z"/></g>
<g><path style="opacity:0.157" fill="#bfbfbf" d="M 202.5,478.5 C 204.278,483.137 206.278,487.803 208.5,492.5C 206.916,494.895 205.249,494.895 203.5,492.5C 204.675,492.719 205.675,492.386 206.5,491.5C 206.376,490.893 206.043,490.56 205.5,490.5C 203.996,486.652 202.996,482.652 202.5,478.5 Z"/></g>
<g><path style="opacity:0.098" fill="#c0bfbf" d="M 321.5,487.5 C 316.578,490.064 311.245,491.397 305.5,491.5C 310.573,489.565 315.906,488.232 321.5,487.5 Z"/></g>
<g><path style="opacity:0.824" fill="#666565" d="M 197.5,490.5 C 200.352,491.258 203.019,491.258 205.5,490.5C 206.043,490.56 206.376,490.893 206.5,491.5C 205.675,492.386 204.675,492.719 203.5,492.5C 201.214,492.405 199.214,491.738 197.5,490.5 Z"/></g>
<g><path style="opacity:0.082" fill="#c2c2c2" d="M 265.5,491.5 C 262.592,493.605 259.258,494.605 255.5,494.5C 256.008,492.767 256.841,492.434 258,493.5C 260.301,492.133 262.801,491.466 265.5,491.5 Z"/></g>
<g><path style="opacity:0.064" fill="#c7c7c7" d="M 301.5,492.5 C 298.587,493.928 295.421,494.928 292,495.5C 291.228,495.355 290.561,495.022 290,494.5C 284.677,496.237 279.177,496.904 273.5,496.5C 282.63,494.69 291.964,493.356 301.5,492.5 Z"/></g>
<g><path style="opacity:0.502" fill="#b5b5b5" d="M 255.5,494.5 C 255.082,495.222 254.416,495.722 253.5,496C 260.158,496.5 266.825,496.666 273.5,496.5C 273.5,496.833 273.5,497.167 273.5,497.5C 264.833,497.5 256.167,497.5 247.5,497.5C 249.522,495.307 252.189,494.307 255.5,494.5 Z"/></g>
</svg>
